<svg width="265" height="152" viewBox="0 0 265 152" fill="none" xmlns="http://www.w3.org/2000/svg">
<path d="M103.049 10.046V10.943V10.982C103.049 11.112 103.036 11.255 103.01 11.411C103.01 11.567 102.997 11.71 102.971 11.84C102.919 11.97 102.867 12.113 102.815 12.269C102.789 12.399 102.75 12.529 102.698 12.659C102.594 12.919 102.503 13.101 102.425 13.205C102.373 13.309 102.334 13.374 102.308 13.4C101.918 13.998 101.398 14.479 100.748 14.843C100.124 15.181 99.4352 15.35 98.6812 15.35H94.9762H94.8202C94.0922 15.35 93.3512 15.519 92.5972 15.857C91.9992 16.091 91.4402 16.481 90.9202 17.027C90.8682 17.053 90.8292 17.079 90.8032 17.105C90.8032 17.131 90.7772 17.17 90.7252 17.222C90.6472 17.3 90.5952 17.365 90.5692 17.417C90.5432 17.443 90.5302 17.456 90.5302 17.456L90.4522 17.534C90.4262 17.56 90.4132 17.586 90.4132 17.612C90.1792 17.898 89.9972 18.171 89.8672 18.431C89.8672 18.457 89.8542 18.483 89.8282 18.509C89.8282 18.509 89.8282 18.535 89.8282 18.587C89.8022 18.613 89.7892 18.639 89.7892 18.665C89.7892 18.665 89.7762 18.678 89.7502 18.704C89.7502 18.73 89.7372 18.756 89.7112 18.782C89.7112 18.782 89.7112 18.795 89.7112 18.821C89.4512 19.393 89.3082 19.939 89.2822 20.459C89.2562 20.485 89.2432 20.524 89.2432 20.576V20.888V21.044V21.941V25.88H94.9762H98.6812H104.297V25.022H98.6812H94.9762H90.1402V21.941V21.044V21.005C90.1402 20.849 90.1402 20.693 90.1402 20.537C90.1402 20.381 90.1662 20.225 90.2182 20.069C90.2442 20.017 90.2572 19.978 90.2572 19.952C90.2572 19.926 90.2702 19.887 90.2962 19.835C90.2962 19.783 90.2962 19.744 90.2962 19.718C90.3222 19.692 90.3352 19.653 90.3352 19.601C90.3612 19.523 90.3872 19.458 90.4132 19.406C90.4392 19.328 90.4652 19.25 90.4912 19.172C90.5432 19.094 90.5822 19.029 90.6082 18.977C90.6342 18.899 90.6732 18.821 90.7252 18.743C90.8292 18.509 90.9722 18.288 91.1542 18.08C91.5962 17.508 92.1422 17.053 92.7922 16.715C93.4682 16.377 94.1962 16.208 94.9762 16.208H98.6812C99.4352 16.208 100.15 16.052 100.826 15.74C100.852 15.74 100.865 15.74 100.865 15.74C100.891 15.714 100.917 15.701 100.943 15.701C101.619 15.389 102.217 14.921 102.737 14.297C102.763 14.245 102.789 14.219 102.815 14.219C102.841 14.193 102.867 14.154 102.893 14.102C102.919 14.05 102.971 13.985 103.049 13.907C103.101 13.803 103.153 13.699 103.205 13.595C103.283 13.491 103.348 13.374 103.4 13.244L103.517 13.01C103.517 12.984 103.53 12.971 103.556 12.971C103.556 12.893 103.582 12.828 103.634 12.776C103.816 12.282 103.907 11.84 103.907 11.45C103.933 11.32 103.946 11.151 103.946 10.943V10.046C103.946 9.318 103.803 8.642 103.517 8.018C103.257 7.368 102.88 6.809 102.386 6.341C101.918 5.847 101.359 5.47 100.709 5.21C100.085 4.924 99.4092 4.781 98.6812 4.781H88.3852V5.678H88.4242H98.6812C99.2792 5.678 99.8382 5.795 100.358 6.029C100.904 6.263 101.372 6.575 101.762 6.965C102.152 7.355 102.464 7.823 102.698 8.369C102.932 8.889 103.049 9.448 103.049 10.046ZM107.027 10.046V10.943C107.027 12.087 106.806 13.166 106.364 14.18C105.922 15.194 105.324 16.078 104.57 16.832C103.816 17.586 102.932 18.184 101.918 18.626C100.904 19.068 99.8252 19.289 98.6812 19.289H94.9762C94.4822 19.289 94.0662 19.458 93.7282 19.796C93.3902 20.134 93.2212 20.55 93.2212 21.044V21.941H94.9762H99.6172H105.311H106.91V28.961H98.6812H94.9762H86.1622V21.941V21.044C86.1622 19.848 86.3832 18.717 86.8252 17.651C87.2932 16.585 87.9302 15.649 88.7362 14.843C89.5422 14.037 90.4782 13.413 91.5442 12.971C92.6102 12.503 93.7542 12.269 94.9762 12.269H98.6812C99.0452 12.269 99.3442 12.139 99.5782 11.879C99.8382 11.619 99.9682 11.307 99.9682 10.943V10.046C99.9682 9.682 99.8382 9.383 99.5782 9.149C99.3442 8.889 99.0452 8.759 98.6812 8.759H88.3462H86.3962V1.7H98.6812C99.8252 1.7 100.904 1.921 101.918 2.363C102.932 2.805 103.816 3.403 104.57 4.157C105.324 4.911 105.922 5.795 106.364 6.809C106.806 7.823 107.027 8.902 107.027 10.046ZM122.037 22.019V29.039H114.978V8.798H111.468V1.778H114.978H122.037V8.798V11.45V18.47V22.019ZM118.956 25.958V25.061V15.389V14.531V5.756V4.859H118.059H114.12V5.756H118.059V25.958H118.956ZM148.288 18.353C148.392 18.873 148.444 19.471 148.444 20.147C148.444 21.369 148.21 22.513 147.742 23.579C147.274 24.619 146.637 25.542 145.831 26.348C145.051 27.154 144.115 27.791 143.023 28.259C141.957 28.701 140.826 28.922 139.63 28.922H126.721L126.682 21.902H139.669C140.163 21.902 140.579 21.733 140.917 21.395C141.255 21.057 141.424 20.641 141.424 20.147C141.424 19.653 141.255 19.237 140.917 18.899C140.579 18.561 140.163 18.392 139.669 18.392H134.638C133.494 18.392 132.415 18.171 131.401 17.729C130.387 17.287 129.503 16.689 128.749 15.935C127.995 15.181 127.397 14.297 126.955 13.283C126.513 12.269 126.292 11.19 126.292 10.046C126.292 8.876 126.513 7.784 126.955 6.77C127.397 5.756 127.995 4.872 128.749 4.118C129.503 3.364 130.387 2.779 131.401 2.363C132.415 1.921 133.494 1.7 134.638 1.7H147.664L147.742 8.72H145.48H144.505H134.638C134.274 8.72 133.962 8.85 133.702 9.11C133.442 9.37 133.312 9.682 133.312 10.046C133.312 10.41 133.442 10.722 133.702 10.982C133.962 11.242 134.274 11.372 134.638 11.372H139.669C141.073 11.372 142.373 11.671 143.569 12.269C144.765 12.867 145.766 13.686 146.572 14.726C146.988 15.22 147.326 15.753 147.586 16.325C147.638 16.377 147.664 16.442 147.664 16.52C147.69 16.598 147.729 16.663 147.781 16.715C147.781 16.741 147.781 16.767 147.781 16.793C147.807 16.819 147.82 16.845 147.82 16.871L148.054 17.456C148.106 17.612 148.132 17.729 148.132 17.807C148.158 17.859 148.171 17.911 148.171 17.963C148.197 17.989 148.21 18.028 148.21 18.08C148.236 18.132 148.249 18.184 148.249 18.236C148.249 18.262 148.262 18.301 148.288 18.353ZM145.363 20.42C145.389 20.316 145.402 20.16 145.402 19.952C145.402 19.822 145.389 19.731 145.363 19.679C145.363 19.549 145.35 19.445 145.324 19.367V19.328C145.324 19.224 145.311 19.159 145.285 19.133C145.285 19.081 145.272 19.042 145.246 19.016C145.246 18.964 145.246 18.912 145.246 18.86C145.246 18.834 145.233 18.808 145.207 18.782C145.207 18.756 145.207 18.73 145.207 18.704C145.207 18.704 145.194 18.678 145.168 18.626C145.168 18.548 145.155 18.483 145.129 18.431C145.103 18.379 145.077 18.34 145.051 18.314C145.051 18.262 145.038 18.21 145.012 18.158C145.012 18.106 144.999 18.08 144.973 18.08C144.973 18.054 144.973 18.028 144.973 18.002C144.973 18.002 144.96 17.989 144.934 17.963C144.934 17.911 144.921 17.885 144.895 17.885C144.895 17.859 144.895 17.833 144.895 17.807C144.869 17.781 144.856 17.755 144.856 17.729C144.856 17.703 144.843 17.677 144.817 17.651C144.713 17.443 144.622 17.287 144.544 17.183L144.427 16.949C144.375 16.897 144.336 16.858 144.31 16.832C144.284 16.78 144.258 16.728 144.232 16.676C144.18 16.65 144.141 16.624 144.115 16.598C144.115 16.572 144.102 16.546 144.076 16.52C143.92 16.312 143.803 16.169 143.725 16.091C143.179 15.545 142.594 15.142 141.97 14.882C141.892 14.882 141.84 14.869 141.814 14.843C141.112 14.557 140.397 14.414 139.669 14.414H134.638C133.884 14.414 133.182 14.245 132.532 13.907C131.908 13.569 131.388 13.101 130.972 12.503V12.464C130.842 12.256 130.712 12.009 130.582 11.723C130.478 11.541 130.413 11.372 130.387 11.216C130.387 11.164 130.374 11.138 130.348 11.138C130.348 11.112 130.348 11.086 130.348 11.06V11.021C130.27 10.709 130.231 10.384 130.231 10.046C130.231 9.422 130.348 8.85 130.582 8.33C130.816 7.784 131.128 7.316 131.518 6.926C131.908 6.536 132.363 6.224 132.883 5.99C133.429 5.756 134.014 5.639 134.638 5.639H145.636V4.781H134.638C133.91 4.781 133.221 4.924 132.571 5.21C131.921 5.47 131.349 5.847 130.855 6.341C130.387 6.809 130.01 7.368 129.724 8.018C129.464 8.642 129.334 9.318 129.334 10.046C129.334 10.254 129.347 10.41 129.373 10.514C129.399 10.748 129.425 10.982 129.451 11.216C129.503 11.424 129.581 11.632 129.685 11.84C129.685 11.918 129.711 11.983 129.763 12.035C129.763 12.087 129.776 12.139 129.802 12.191C129.828 12.243 129.854 12.295 129.88 12.347C129.984 12.581 130.101 12.776 130.231 12.932V12.971H130.27L130.387 13.205C130.439 13.231 130.491 13.296 130.543 13.4L130.894 13.751C131.336 14.193 131.804 14.531 132.298 14.765C132.35 14.791 132.376 14.804 132.376 14.804C132.402 14.804 132.441 14.817 132.493 14.843C133.117 15.155 133.832 15.311 134.638 15.311H139.669C139.747 15.311 139.851 15.311 139.981 15.311C140.111 15.311 140.215 15.324 140.293 15.35C141.125 15.48 141.866 15.779 142.516 16.247C143.166 16.715 143.673 17.313 144.037 18.041C144.349 18.665 144.505 19.367 144.505 20.147V20.459C144.505 20.511 144.492 20.563 144.466 20.615C144.466 20.641 144.466 20.68 144.466 20.732V20.771C144.388 21.369 144.206 21.928 143.92 22.448C143.66 22.942 143.309 23.384 142.867 23.774C142.451 24.138 141.97 24.437 141.424 24.671C140.878 24.879 140.293 24.983 139.669 24.983H128.71V25.841H139.669C140.397 25.841 141.086 25.724 141.736 25.49C142.386 25.23 142.958 24.879 143.452 24.437C143.972 23.969 144.388 23.436 144.7 22.838C145.038 22.24 145.246 21.59 145.324 20.888V20.849C145.35 20.797 145.363 20.719 145.363 20.615V20.42ZM173.581 1.778V8.798H166.522V11.45V18.47V21.98V29.039H159.502V8.798H152.482V1.778H159.502H166.522H173.581ZM171.787 5.756V4.859H166.522H163.441H162.583H159.502H154.237V5.756H159.502H162.583V25.958H163.441V25.061V15.389V14.531V5.756H166.522H171.787ZM46.5389 49.436V59.108C46.5389 60.33 46.3049 61.474 45.8369 62.54C45.3949 63.606 44.7709 64.542 43.9649 65.348C43.1589 66.154 42.2229 66.791 41.1569 67.259C40.0909 67.701 38.9469 67.922 37.7249 67.922H25.4399V60.863V47.681V40.661H37.7249C38.9469 40.661 40.0909 40.895 41.1569 41.363C42.2229 41.805 43.1589 42.429 43.9649 43.235C44.7709 44.041 45.3949 44.977 45.8369 46.043C46.3049 47.109 46.5389 48.24 46.5389 49.436ZM43.4579 59.108V49.436C43.4579 45.64 41.5469 43.742 37.7249 43.742H28.5209V64.841H37.7249C41.5469 64.841 43.4579 62.93 43.4579 59.108ZM42.5609 49.436V59.108C42.5609 62.332 40.9489 63.944 37.7249 63.944H29.3789V44.639H37.7249C40.9489 44.639 42.5609 46.238 42.5609 49.436ZM39.5189 59.108V49.436C39.5189 48.968 39.3369 48.565 38.9729 48.227C38.6349 47.863 38.2189 47.681 37.7249 47.681H32.4599V60.863H37.7249C38.2189 60.863 38.6349 60.694 38.9729 60.356C39.3369 60.018 39.5189 59.602 39.5189 59.108ZM54.3953 64.88H55.2923H70.6583V63.983H55.2923V54.311H58.3733H67.1483V53.453H58.3733H55.2923V44.678H70.6583V43.781H54.3953V64.88ZM72.4133 60.902V67.961H51.3143V40.7H72.4133V47.72H58.3733V50.372H68.9033V57.392H58.3733V60.902H72.4133ZM97.6756 60.98V68.039H85.3516C84.1296 68.039 82.9856 67.818 81.9196 67.376C80.8796 66.908 79.9566 66.271 79.1506 65.465C78.3446 64.659 77.7076 63.723 77.2396 62.657C76.7976 61.591 76.5766 60.447 76.5766 59.225V49.553C76.5766 48.357 76.7976 47.226 77.2396 46.16C77.7076 45.094 78.3446 44.158 79.1506 43.352C79.9566 42.546 80.8796 41.922 81.9196 41.48C82.9856 41.012 84.1296 40.778 85.3516 40.778H97.6756V47.798H85.3516C84.8836 47.798 84.4676 47.967 84.1036 48.305C83.7656 48.643 83.5966 49.059 83.5966 49.553V59.225C83.5966 59.719 83.7656 60.135 84.1036 60.473C84.4676 60.811 84.8836 60.98 85.3516 60.98H97.6756ZM95.9206 64.958V64.061H85.3516C82.1276 64.061 80.5156 62.449 80.5156 59.225V49.553C80.5156 46.329 82.1276 44.717 85.3516 44.717H95.9206V43.859H85.3516C81.5556 43.859 79.6576 45.757 79.6576 49.553V59.225C79.6576 63.047 81.5556 64.958 85.3516 64.958H95.9206ZM105.159 64.88H106.056H121.422V63.983H106.056V54.311H109.137H117.912V53.453H109.137H106.056V44.678H121.422V43.781H105.159V64.88ZM123.177 60.902V67.961H102.078V40.7H123.177V47.72H109.137V50.372H119.667V57.392H109.137V60.902H123.177ZM149.922 40.739H156.942V67.961H155.538H149.922V60.941V57.431V57.236L144.852 67.961H139.821L134.751 57.236V57.431V60.941V67.961H127.731V40.739H134.751L142.356 56.807L149.922 40.739ZM153.861 64.919V43.82H153.003H151.872L142.356 64.061L132.801 43.82H131.67H130.812V64.919H131.67V64.022V54.35V53.492V44.678H132.255L142.356 66.089L152.418 44.678H153.003V53.492V54.35V64.022V64.919H153.861ZM165.103 64.841H165.961H176.959C177.687 64.841 178.376 64.711 179.026 64.451C179.702 64.191 180.287 63.827 180.781 63.359C181.301 62.891 181.717 62.345 182.029 61.721C182.367 61.097 182.575 60.421 182.653 59.693C182.679 59.381 182.679 59.056 182.653 58.718V58.562V58.445C182.627 58.393 182.614 58.341 182.614 58.289C182.614 58.211 182.601 58.133 182.575 58.055C182.549 57.977 182.536 57.912 182.536 57.86C182.536 57.782 182.51 57.704 182.458 57.626V57.587C182.406 57.431 182.354 57.288 182.302 57.158C182.302 57.106 182.289 57.067 182.263 57.041C182.263 57.015 182.263 56.989 182.263 56.963C182.211 56.911 182.172 56.859 182.146 56.807C182.146 56.729 182.12 56.664 182.068 56.612C181.912 56.248 181.717 55.923 181.483 55.637C180.833 54.805 180.04 54.207 179.104 53.843C179.546 53.661 179.949 53.414 180.313 53.102C180.703 52.764 181.041 52.387 181.327 51.971C181.405 51.841 181.47 51.724 181.522 51.62C181.6 51.516 181.665 51.399 181.717 51.269C181.769 51.191 181.821 51.074 181.873 50.918C182.159 50.294 182.276 49.657 182.224 49.007C182.224 48.175 182.029 47.369 181.639 46.589C181.249 45.809 180.677 45.159 179.923 44.639C179.559 44.353 179.078 44.132 178.48 43.976C177.908 43.794 177.401 43.716 176.959 43.742H165.103V64.841ZM183.862 53.687C184.148 53.999 184.408 54.389 184.642 54.857C184.876 55.299 185.084 55.767 185.266 56.261C185.448 56.755 185.578 57.249 185.656 57.743C185.734 58.237 185.76 58.692 185.734 59.108C185.734 60.33 185.5 61.474 185.032 62.54C184.59 63.606 183.966 64.542 183.16 65.348C182.354 66.154 181.418 66.791 180.352 67.259C179.286 67.701 178.155 67.922 176.959 67.922H162.022V40.661H176.959C180.313 40.661 182.77 42.143 184.33 45.107C185.89 48.071 185.734 50.931 183.862 53.687ZM181.795 59.108C181.795 59.784 181.665 60.421 181.405 61.019C181.145 61.591 180.794 62.098 180.352 62.54C179.936 62.982 179.429 63.333 178.831 63.593C178.233 63.827 177.609 63.944 176.959 63.944H165.961V54.272H169.042H176.959C177.037 54.272 177.141 54.285 177.271 54.311C177.401 54.311 177.505 54.311 177.583 54.311C178.181 54.389 178.74 54.584 179.26 54.896C179.78 55.182 180.222 55.546 180.586 55.988C180.976 56.404 181.275 56.885 181.483 57.431C181.691 57.951 181.795 58.51 181.795 59.108ZM178.714 59.108C178.714 58.614 178.545 58.198 178.207 57.86C177.869 57.522 177.453 57.353 176.959 57.353H169.042V60.863H176.959C177.453 60.863 177.869 60.694 178.207 60.356C178.545 60.018 178.714 59.602 178.714 59.108ZM181.054 50.606C180.742 51.438 180.209 52.114 179.455 52.634C178.727 53.154 177.895 53.414 176.959 53.414H169.042H165.961V44.639H176.959C177.323 44.587 177.752 44.639 178.246 44.795C178.74 44.951 179.13 45.146 179.416 45.38C180.04 45.822 180.521 46.368 180.859 47.018C181.197 47.642 181.366 48.305 181.366 49.007C181.366 49.189 181.34 49.41 181.288 49.67C181.288 49.8 181.275 49.904 181.249 49.982C181.223 50.034 181.21 50.086 181.21 50.138C181.21 50.19 181.197 50.242 181.171 50.294V50.333C181.119 50.437 181.08 50.528 181.054 50.606ZM178.285 49.007C178.285 48.643 178.155 48.331 177.895 48.071C177.635 47.811 177.323 47.681 176.959 47.681H169.042V50.333H176.959C177.323 50.333 177.635 50.203 177.895 49.943C178.155 49.683 178.285 49.371 178.285 49.007ZM193.074 64.88H193.971H209.337V63.983H193.971V54.311H197.052H205.827V53.453H197.052H193.971V44.678H209.337V43.781H193.074V64.88ZM211.092 60.902V67.961H189.993V40.7H211.092V47.72H197.052V50.372H207.582V57.392H197.052V60.902H211.092ZM233.273 48.89C233.299 48.968 233.312 49.072 233.312 49.202C233.312 49.332 233.312 49.436 233.312 49.514V49.904C233.312 49.956 233.299 50.021 233.273 50.099C233.273 50.151 233.273 50.203 233.273 50.255C233.247 50.307 233.234 50.333 233.234 50.333C233.234 50.385 233.221 50.437 233.195 50.489C233.195 50.541 233.195 50.593 233.195 50.645C233.143 50.853 233.091 51.009 233.039 51.113C232.987 51.269 232.948 51.373 232.922 51.425C232.896 51.529 232.831 51.659 232.727 51.815C232.623 52.049 232.48 52.27 232.298 52.478C231.856 53.05 231.297 53.505 230.621 53.843C229.971 54.181 229.256 54.35 228.476 54.35H222.626H219.545V44.678H228.476C228.944 44.652 229.464 44.743 230.036 44.951C230.634 45.159 231.115 45.406 231.479 45.692C231.999 46.108 232.402 46.602 232.688 47.174C233 47.72 233.195 48.292 233.273 48.89ZM230.231 49.514C230.231 49.02 230.062 48.604 229.724 48.266C229.386 47.928 228.97 47.759 228.476 47.759H222.626V51.269H228.476C228.97 51.269 229.386 51.1 229.724 50.762C230.062 50.424 230.231 50.008 230.231 49.514ZM234.17 48.89C234.144 48.76 234.118 48.643 234.092 48.539C234.092 48.435 234.079 48.331 234.053 48.227C233.975 47.889 233.884 47.59 233.78 47.33L233.663 47.096C233.611 46.992 233.559 46.901 233.507 46.823C233.455 46.745 233.403 46.654 233.351 46.55L233.234 46.316C233.156 46.186 233.065 46.082 232.961 46.004C232.883 45.9 232.805 45.783 232.727 45.653C232.675 45.653 232.649 45.627 232.649 45.575L232.532 45.458H232.493C232.337 45.302 232.207 45.185 232.103 45.107C232.051 45.055 232.025 45.029 232.025 45.029C231.765 44.821 231.414 44.6 230.972 44.366C230.868 44.314 230.777 44.275 230.699 44.249L230.465 44.132C230.361 44.106 230.257 44.08 230.153 44.054C230.075 44.028 229.984 44.002 229.88 43.976C229.36 43.846 228.905 43.781 228.515 43.781H228.476H219.545H218.687V64.88H219.545V64.022V62.618V55.208H222.626H225.59L230.387 64.88H231.362L226.565 55.208H228.476C229.282 55.208 229.997 55.078 230.621 54.818C230.725 54.766 230.777 54.74 230.777 54.74C231.609 54.402 232.311 53.869 232.883 53.141C232.961 53.063 233.013 52.998 233.039 52.946C233.065 52.92 233.078 52.907 233.078 52.907C233.13 52.855 233.182 52.777 233.234 52.673C233.26 52.621 233.273 52.595 233.273 52.595C233.299 52.569 233.325 52.53 233.351 52.478C233.429 52.4 233.481 52.335 233.507 52.283V52.205C233.533 52.205 233.546 52.192 233.546 52.166C233.572 52.114 233.598 52.062 233.624 52.01C233.65 51.932 233.676 51.867 233.702 51.815C233.728 51.789 233.741 51.776 233.741 51.776C233.741 51.75 233.754 51.724 233.78 51.698C233.78 51.62 233.806 51.555 233.858 51.503V51.425C233.884 51.373 233.897 51.347 233.897 51.347C233.897 51.321 233.897 51.308 233.897 51.308C233.923 51.282 233.936 51.256 233.936 51.23C234.066 50.866 234.144 50.489 234.17 50.099C234.222 49.709 234.222 49.319 234.17 48.929V48.89ZM228.476 40.739C228.632 40.687 228.775 40.687 228.905 40.739C229.451 40.739 230.023 40.817 230.621 40.973C231.245 41.129 231.83 41.35 232.376 41.636C232.948 41.922 233.455 42.247 233.897 42.611C233.949 42.637 233.975 42.65 233.975 42.65C234.053 42.728 234.17 42.819 234.326 42.923C235.574 44.067 236.445 45.445 236.939 47.057V47.096L237.056 47.564V47.603C237.186 48.123 237.251 48.604 237.251 49.046C237.277 49.436 237.277 49.826 237.251 50.216C237.225 50.398 237.199 50.567 237.173 50.723C237.173 50.879 237.147 51.048 237.095 51.23V51.308C237.069 51.36 237.056 51.425 237.056 51.503C237.056 51.555 237.043 51.607 237.017 51.659C236.991 51.711 236.978 51.763 236.978 51.815C236.978 51.867 236.965 51.919 236.939 51.971L236.822 52.322C236.77 52.478 236.718 52.595 236.666 52.673C236.666 52.725 236.653 52.777 236.627 52.829C236.601 52.881 236.575 52.933 236.549 52.985C236.289 53.687 235.912 54.337 235.418 54.935C234.326 56.313 232.948 57.275 231.284 57.821L236.315 67.961H228.476L223.679 58.289H222.626V60.941V67.961H215.606V40.739H228.476Z" fill="#6F62C4"/>
<path d="M87.2085 115.704V120.024H82.8645V107.568H80.7045V103.248H82.8645H87.2085V107.568V109.2V113.52V115.704ZM85.3125 118.128V117.576V111.624V111.096V105.696V105.144H84.7605H82.3365V105.696H84.7605V118.128H85.3125ZM96.547 115.704V120.024H92.203V107.568H90.043V103.248H92.203H96.547V107.568V109.2V113.52V115.704ZM94.651 118.128V117.576V111.624V111.096V105.696V105.144H94.099H91.675V105.696H94.099V118.128H94.651ZM101.421 118.344H101.973V117.816H101.421V118.344ZM103.821 116.184V119.976H99.4774V116.184H103.821ZM101.397 105.336H101.949V104.808H101.397V105.336ZM103.797 103.176V106.968H99.4534V103.176H103.797ZM117.603 113.256C118.035 114.072 118.035 114.936 117.603 115.848C117.059 116.968 116.163 117.528 114.915 117.528H108.915H108.363V118.08H108.915H114.915H115.131C116.395 118 117.323 117.432 117.915 116.376C117.947 116.344 117.979 116.296 118.011 116.232L118.083 116.088C118.115 116.024 118.139 115.968 118.155 115.92C118.667 114.768 118.563 113.656 117.843 112.584L117.723 112.464C117.723 112.448 117.707 112.424 117.675 112.392C117.675 112.376 117.659 112.352 117.627 112.32C117.339 111.952 116.995 111.664 116.595 111.456L116.451 111.384C116.419 111.384 116.403 111.376 116.403 111.36C115.907 111.152 115.411 111.048 114.915 111.048H111.195H109.323V105.624H118.467V105.096H108.771V111.576H109.323H111.195H114.915C115.827 111.576 116.571 111.912 117.147 112.584C117.179 112.632 117.227 112.688 117.291 112.752C117.323 112.784 117.339 112.816 117.339 112.848C117.355 112.864 117.371 112.888 117.387 112.92C117.403 112.92 117.411 112.928 117.411 112.944C117.411 112.944 117.419 112.944 117.435 112.944L117.507 113.088C117.539 113.12 117.555 113.152 117.555 113.184C117.571 113.2 117.587 113.224 117.603 113.256ZM120.339 114.552C120.339 115.208 120.227 115.832 120.003 116.424L119.787 116.928C119.755 116.976 119.723 117.032 119.691 117.096C119.675 117.144 119.651 117.192 119.619 117.24C119.603 117.272 119.587 117.296 119.571 117.312C119.571 117.312 119.563 117.328 119.547 117.36C119.083 118.112 118.475 118.72 117.723 119.184C116.971 119.648 116.131 119.904 115.203 119.952C115.155 119.952 115.107 119.96 115.059 119.976C115.011 119.976 114.963 119.976 114.915 119.976H106.875V115.632H111.195H114.915C115.635 115.632 115.995 115.272 115.995 114.552C115.995 113.832 115.635 113.472 114.915 113.472H111.195H106.875V103.2H120.099V107.52H111.195V109.152H114.915C115.779 109.152 116.579 109.336 117.315 109.704C118.051 110.072 118.667 110.576 119.163 111.216L119.259 111.312C119.595 111.776 119.859 112.28 120.051 112.824C120.243 113.368 120.339 113.944 120.339 114.552ZM125.613 108.648V108.456C125.613 108.376 125.621 108.312 125.637 108.264C125.685 107.896 125.789 107.56 125.949 107.256C126.125 106.936 126.341 106.664 126.597 106.44C126.869 106.2 127.173 106.016 127.509 105.888C127.845 105.744 128.205 105.672 128.589 105.672H130.581C130.965 105.672 131.325 105.744 131.661 105.888C131.997 106.016 132.293 106.2 132.549 106.44C132.821 106.664 133.037 106.936 133.197 107.256C133.373 107.56 133.485 107.896 133.533 108.264C133.549 108.312 133.557 108.376 133.557 108.456C133.557 108.536 133.557 108.6 133.557 108.648V111.624H130.581H128.589C128.541 111.624 128.477 111.624 128.397 111.624C128.317 111.608 128.253 111.6 128.205 111.6C127.373 111.472 126.717 111.096 126.237 110.472C126.109 110.328 125.997 110.152 125.901 109.944C125.901 109.928 125.893 109.912 125.877 109.896L125.805 109.704C125.773 109.64 125.757 109.592 125.757 109.56L125.709 109.44C125.677 109.312 125.653 109.184 125.637 109.056C125.621 108.912 125.613 108.776 125.613 108.648ZM127.509 108.648C127.509 108.952 127.613 109.208 127.821 109.416C128.029 109.624 128.285 109.728 128.589 109.728H130.581C130.885 109.728 131.141 109.624 131.349 109.416C131.557 109.208 131.661 108.952 131.661 108.648C131.661 108.344 131.557 108.088 131.349 107.88C131.141 107.672 130.885 107.568 130.581 107.568H128.589C128.285 107.568 128.029 107.672 127.821 107.88C127.613 108.088 127.509 108.344 127.509 108.648ZM123.477 115.68H130.581H130.869C131.093 115.68 131.277 115.6 131.421 115.44C131.581 115.28 131.661 115.088 131.661 114.864V114.048H130.581H128.589C127.501 114.048 126.525 113.768 125.661 113.208C124.797 112.648 124.149 111.912 123.717 111C123.685 110.952 123.661 110.912 123.645 110.88C123.629 110.832 123.613 110.784 123.597 110.736C123.581 110.704 123.565 110.672 123.549 110.64C123.533 110.592 123.517 110.544 123.501 110.496L123.429 110.28L123.381 110.112C123.349 110.048 123.333 109.992 123.333 109.944C123.301 109.848 123.285 109.776 123.285 109.728C123.205 109.36 123.165 109 123.165 108.648C123.165 107.896 123.301 107.192 123.573 106.536C123.861 105.88 124.253 105.312 124.749 104.832C125.245 104.336 125.821 103.952 126.477 103.68C127.133 103.392 127.837 103.248 128.589 103.248H130.581C131.333 103.248 132.037 103.392 132.693 103.68C133.349 103.952 133.925 104.336 134.421 104.832C134.917 105.312 135.301 105.88 135.573 106.536C135.861 107.192 136.005 107.896 136.005 108.648V114.864C136.005 115.568 135.869 116.232 135.597 116.856C135.325 117.48 134.957 118.024 134.493 118.488C134.029 118.952 133.485 119.32 132.861 119.592C132.237 119.864 131.573 120 130.869 120H130.581H123.525L123.477 115.68ZM133.557 113.064V114.864C133.557 115.232 133.485 115.584 133.341 115.92C133.197 116.24 133.005 116.528 132.765 116.784C132.525 117.024 132.237 117.216 131.901 117.36C131.581 117.504 131.237 117.576 130.869 117.576H130.581H124.965V118.104H130.581H130.869C131.317 118.104 131.733 118.024 132.117 117.864C132.517 117.688 132.861 117.456 133.149 117.168C133.453 116.864 133.685 116.52 133.845 116.136C134.021 115.736 134.109 115.312 134.109 114.864V108.648V108.624V108.552C134.109 108.504 134.101 108.464 134.085 108.432C134.085 108.384 134.085 108.336 134.085 108.288V108.192C134.021 107.76 133.885 107.36 133.677 106.992C133.485 106.608 133.229 106.28 132.909 106.008C132.605 105.736 132.253 105.52 131.853 105.36C131.453 105.2 131.029 105.12 130.581 105.12H128.589C128.141 105.12 127.717 105.2 127.317 105.36C126.917 105.52 126.557 105.736 126.237 106.008C125.933 106.28 125.677 106.608 125.469 106.992C125.277 107.36 125.149 107.76 125.085 108.192V108.36C125.069 108.392 125.061 108.424 125.061 108.456V108.744V108.936C125.077 108.968 125.085 109.024 125.085 109.104V109.152C125.101 109.184 125.109 109.232 125.109 109.296L125.157 109.464L125.229 109.704L125.301 109.944L125.397 110.136L125.493 110.328C125.589 110.504 125.677 110.648 125.757 110.76C125.789 110.76 125.805 110.776 125.805 110.808L125.829 110.832L125.973 111L126.093 111.144C126.237 111.272 126.389 111.4 126.549 111.528C126.709 111.64 126.877 111.736 127.053 111.816L127.245 111.912C127.661 112.072 128.109 112.152 128.589 112.152H130.581H133.557V113.064ZM161.079 108.576V108.6V108.816C161.079 108.864 161.071 108.904 161.055 108.936C161.055 108.968 161.055 109 161.055 109.032C161.055 109.064 161.047 109.088 161.031 109.104C161.031 109.184 161.023 109.24 161.007 109.272C160.991 109.304 160.983 109.336 160.983 109.368C160.983 109.4 160.975 109.432 160.959 109.464C160.943 109.496 160.935 109.52 160.935 109.536C160.935 109.536 160.927 109.552 160.911 109.584V109.608C160.879 109.672 160.855 109.728 160.839 109.776C160.791 109.888 160.735 110 160.671 110.112C160.607 110.208 160.535 110.312 160.455 110.424C160.183 110.776 159.839 111.056 159.423 111.264C159.023 111.456 158.583 111.552 158.103 111.552H153.903H152.007V105.6H158.103C158.391 105.584 158.711 105.64 159.063 105.768C159.431 105.896 159.727 106.056 159.951 106.248C160.591 106.76 160.959 107.408 161.055 108.192C161.071 108.224 161.079 108.288 161.079 108.384V108.504V108.576ZM159.183 108.576C159.183 108.288 159.079 108.04 158.871 107.832C158.663 107.608 158.407 107.496 158.103 107.496H153.903V109.656H158.103C158.407 109.656 158.663 109.552 158.871 109.344C159.079 109.136 159.183 108.88 159.183 108.576ZM158.103 103.176C158.295 103.176 158.479 103.192 158.655 103.224C158.847 103.24 159.031 103.264 159.207 103.296C159.239 103.296 159.263 103.304 159.279 103.32C159.311 103.32 159.343 103.32 159.375 103.32C159.407 103.336 159.431 103.344 159.447 103.344C159.479 103.344 159.511 103.352 159.543 103.368L159.759 103.44C159.823 103.456 159.879 103.472 159.927 103.488C159.991 103.504 160.063 103.528 160.143 103.56C160.159 103.576 160.167 103.584 160.167 103.584C160.183 103.584 160.199 103.592 160.215 103.608C160.247 103.624 160.287 103.64 160.335 103.656C160.383 103.672 160.423 103.688 160.455 103.704C160.807 103.864 161.135 104.072 161.439 104.328C161.455 104.328 161.463 104.336 161.463 104.352C161.463 104.352 161.471 104.352 161.487 104.352C161.567 104.432 161.631 104.488 161.679 104.52L161.703 104.544C161.735 104.576 161.767 104.608 161.799 104.64C161.847 104.672 161.887 104.704 161.919 104.736C162.015 104.848 162.111 104.952 162.207 105.048C162.303 105.144 162.391 105.256 162.471 105.384C162.503 105.416 162.519 105.448 162.519 105.48C162.535 105.496 162.559 105.52 162.591 105.552C162.591 105.568 162.599 105.576 162.615 105.576C162.647 105.608 162.663 105.648 162.663 105.696C162.679 105.728 162.703 105.76 162.735 105.792C162.815 105.92 162.895 106.072 162.975 106.248C163.007 106.28 163.023 106.32 163.023 106.368C163.039 106.4 163.063 106.44 163.095 106.488C163.159 106.6 163.199 106.712 163.215 106.824C163.247 106.888 163.279 106.984 163.311 107.112L163.383 107.328L163.455 107.688C163.455 107.736 163.455 107.784 163.455 107.832C163.471 107.88 163.479 107.936 163.479 108C163.495 108.032 163.503 108.096 163.503 108.192C163.519 108.256 163.527 108.32 163.527 108.384C163.527 108.448 163.527 108.512 163.527 108.576V108.6C163.527 108.712 163.519 108.8 163.503 108.864V109.08C163.503 109.112 163.495 109.144 163.479 109.176C163.479 109.192 163.479 109.216 163.479 109.248C163.479 109.28 163.471 109.32 163.455 109.368C163.455 109.4 163.455 109.432 163.455 109.464C163.375 109.896 163.255 110.304 163.095 110.688L163.023 110.832C162.943 111.04 162.847 111.224 162.735 111.384L162.591 111.6L162.447 111.816C162.431 111.832 162.415 111.848 162.399 111.864C162.399 111.88 162.391 111.896 162.375 111.912C161.863 112.552 161.239 113.064 160.503 113.448C159.767 113.816 158.967 114 158.103 114H153.903V115.608V119.952H149.583V103.176H158.103ZM161.511 109.44C161.607 109.072 161.647 108.728 161.631 108.408C161.631 108.36 161.623 108.328 161.607 108.312V108.24V108.144V108.12C161.591 108.056 161.567 107.944 161.535 107.784C161.503 107.704 161.471 107.616 161.439 107.52C161.423 107.424 161.399 107.336 161.367 107.256C161.351 107.224 161.335 107.2 161.319 107.184C161.319 107.152 161.311 107.12 161.295 107.088C161.263 107.024 161.231 106.968 161.199 106.92C161.183 106.872 161.159 106.816 161.127 106.752C161.095 106.72 161.063 106.672 161.031 106.608C160.983 106.544 160.927 106.48 160.863 106.416C160.815 106.352 160.767 106.288 160.719 106.224L160.671 106.176L160.599 106.104V106.08C160.551 106.048 160.503 106.016 160.455 105.984C160.423 105.936 160.383 105.896 160.335 105.864C160.335 105.864 160.319 105.848 160.287 105.816C160.127 105.688 159.911 105.552 159.639 105.408C159.575 105.376 159.519 105.352 159.471 105.336C159.439 105.336 159.391 105.32 159.327 105.288C159.167 105.224 159.047 105.184 158.967 105.168C158.823 105.136 158.679 105.112 158.535 105.096C158.391 105.064 158.255 105.056 158.127 105.072H158.103H152.007H151.479V118.056H152.007V117.504V116.64V112.104H153.903H158.103C158.551 112.104 158.999 112.016 159.447 111.84C159.463 111.84 159.487 111.824 159.519 111.792C159.999 111.6 160.423 111.288 160.791 110.856C160.807 110.84 160.815 110.824 160.815 110.808C160.831 110.792 160.855 110.776 160.887 110.76V110.736C160.951 110.672 160.991 110.616 161.007 110.568H161.031V110.544C161.047 110.528 161.055 110.52 161.055 110.52C161.055 110.504 161.063 110.488 161.079 110.472C161.079 110.456 161.095 110.432 161.127 110.4C161.127 110.384 161.127 110.376 161.127 110.376C161.143 110.376 161.151 110.368 161.151 110.352C161.167 110.32 161.175 110.304 161.175 110.304C161.191 110.272 161.199 110.256 161.199 110.256L161.271 110.112C161.303 110.08 161.319 110.04 161.319 109.992C161.335 109.944 161.359 109.904 161.391 109.872C161.407 109.84 161.415 109.8 161.415 109.752C161.431 109.704 161.447 109.664 161.463 109.632C161.495 109.568 161.511 109.512 161.511 109.464V109.44ZM179.753 103.224H184.073V119.976H183.209H179.753V115.656V113.496V113.376L176.633 119.976H173.537L170.417 113.376V113.496V115.656V119.976H166.097V103.224H170.417L175.097 113.112L179.753 103.224ZM182.177 118.104V105.12H181.649H180.953L175.097 117.576L169.217 105.12H168.521H167.993V118.104H168.521V117.552V111.6V111.072V105.648H168.881L175.097 118.824L181.289 105.648H181.649V111.072V111.6V117.552V118.104H182.177Z" fill="#F5A623"/>
<path d="M17.0479 142.942C17.3719 143.554 17.3719 144.202 17.0479 144.886C16.6399 145.726 15.9679 146.146 15.0319 146.146H10.5319H10.1179V146.56H10.5319H15.0319H15.1939C16.1419 146.5 16.8379 146.074 17.2819 145.282C17.3059 145.258 17.3299 145.222 17.3539 145.174L17.4079 145.066C17.4319 145.018 17.4499 144.976 17.4619 144.94C17.8459 144.076 17.7679 143.242 17.2279 142.438L17.1379 142.348C17.1379 142.336 17.1259 142.318 17.1019 142.294C17.1019 142.282 17.0899 142.264 17.0659 142.24C16.8499 141.964 16.5919 141.748 16.2919 141.592L16.1839 141.538C16.1599 141.538 16.1479 141.532 16.1479 141.52C15.7759 141.364 15.4039 141.286 15.0319 141.286H12.2419H10.8379V137.218H17.6959V136.822H10.4239V141.682H10.8379H12.2419H15.0319C15.7159 141.682 16.2739 141.934 16.7059 142.438C16.7299 142.474 16.7659 142.516 16.8139 142.564C16.8379 142.588 16.8499 142.612 16.8499 142.636C16.8619 142.648 16.8739 142.666 16.8859 142.69C16.8979 142.69 16.9039 142.696 16.9039 142.708C16.9039 142.708 16.9099 142.708 16.9219 142.708L16.9759 142.816C16.9999 142.84 17.0119 142.864 17.0119 142.888C17.0239 142.9 17.0359 142.918 17.0479 142.942ZM19.0999 143.914C19.0999 144.406 19.0159 144.874 18.8479 145.318L18.6859 145.696C18.6619 145.732 18.6379 145.774 18.6139 145.822C18.6019 145.858 18.5839 145.894 18.5599 145.93C18.5479 145.954 18.5359 145.972 18.5239 145.984C18.5239 145.984 18.5179 145.996 18.5059 146.02C18.1579 146.584 17.7019 147.04 17.1379 147.388C16.5739 147.736 15.9439 147.928 15.2479 147.964C15.2119 147.964 15.1759 147.97 15.1399 147.982C15.1039 147.982 15.0679 147.982 15.0319 147.982H9.00186V144.724H12.2419H15.0319C15.5719 144.724 15.8419 144.454 15.8419 143.914C15.8419 143.374 15.5719 143.104 15.0319 143.104H12.2419H9.00186V135.4H18.9199V138.64H12.2419V139.864H15.0319C15.6799 139.864 16.2799 140.002 16.8319 140.278C17.3839 140.554 17.8459 140.932 18.2179 141.412L18.2899 141.484C18.5419 141.832 18.7399 142.21 18.8839 142.618C19.0279 143.026 19.0999 143.458 19.0999 143.914ZM39.3397 139.432V143.896C39.3397 144.46 39.2317 144.988 39.0157 145.48C38.8117 145.972 38.5237 146.404 38.1517 146.776C37.7797 147.148 37.3477 147.442 36.8557 147.658C36.3637 147.862 35.8357 147.964 35.2717 147.964H29.6017V144.706V138.622V135.382H35.2717C35.8357 135.382 36.3637 135.49 36.8557 135.706C37.3477 135.91 37.7797 136.198 38.1517 136.57C38.5237 136.942 38.8117 137.374 39.0157 137.866C39.2317 138.358 39.3397 138.88 39.3397 139.432ZM37.9177 143.896V139.432C37.9177 137.68 37.0357 136.804 35.2717 136.804H31.0237V146.542H35.2717C37.0357 146.542 37.9177 145.66 37.9177 143.896ZM37.5037 139.432V143.896C37.5037 145.384 36.7597 146.128 35.2717 146.128H31.4197V137.218H35.2717C36.7597 137.218 37.5037 137.956 37.5037 139.432ZM36.0997 143.896V139.432C36.0997 139.216 36.0157 139.03 35.8477 138.874C35.6917 138.706 35.4997 138.622 35.2717 138.622H32.8417V144.706H35.2717C35.4997 144.706 35.6917 144.628 35.8477 144.472C36.0157 144.316 36.0997 144.124 36.0997 143.896ZM47.4477 135.472C47.9997 135.472 48.5217 135.58 49.0138 135.796C49.5058 136 49.9378 136.288 50.3097 136.66C50.6818 137.032 50.9698 137.464 51.1738 137.956C51.3898 138.448 51.4977 138.97 51.4977 139.522V148H50.0757V139.522V139.432V139.342C50.0637 139.306 50.0577 139.252 50.0577 139.18C50.0097 138.856 49.9077 138.556 49.7518 138.28C49.6078 138.004 49.4158 137.764 49.1758 137.56C48.9478 137.344 48.6838 137.182 48.3838 137.074C48.0958 136.954 47.7838 136.894 47.4477 136.894H45.4137C45.0777 136.894 44.7597 136.954 44.4597 137.074C44.1597 137.182 43.8897 137.344 43.6497 137.56C43.4217 137.764 43.2297 138.004 43.0737 138.28C42.9297 138.556 42.8397 138.856 42.8037 139.18C42.7917 139.216 42.7857 139.258 42.7857 139.306C42.7857 139.33 42.7797 139.348 42.7677 139.36C42.7677 139.36 42.7677 139.372 42.7677 139.396V139.522V148H41.3637V139.522C41.3637 138.97 41.4657 138.448 41.6697 137.956C41.8857 137.464 42.1737 137.032 42.5337 136.66C42.9057 136.288 43.3377 136 43.8297 135.796C44.3217 135.58 44.8497 135.472 45.4137 135.472H47.4477ZM48.2578 142.888H49.6618V148H48.2578V144.328H44.6037V148H43.1817V142.888H44.6037H48.2578ZM49.6618 139.522V141.034V141.394V141.808V142.474H48.2578H44.6037H43.1817V142.438V141.808V141.394V141.034V139.522C43.1817 139.222 43.2417 138.94 43.3617 138.676C43.4817 138.4 43.6377 138.16 43.8297 137.956C44.0337 137.752 44.2677 137.596 44.5317 137.488C44.8077 137.368 45.1017 137.308 45.4137 137.308H47.4477C47.7358 137.308 48.0058 137.362 48.2578 137.47C48.5098 137.566 48.7318 137.698 48.9238 137.866C49.1158 138.034 49.2718 138.238 49.3917 138.478C49.5238 138.718 49.6078 138.97 49.6437 139.234C49.6558 139.258 49.6618 139.306 49.6618 139.378V139.468V139.522ZM48.2578 139.522C48.2578 139.294 48.1738 139.102 48.0058 138.946C47.8497 138.79 47.6637 138.712 47.4477 138.712H45.4137C45.1857 138.712 44.9937 138.79 44.8377 138.946C44.6817 139.102 44.6037 139.294 44.6037 139.522V141.034H48.2578V139.522ZM60.6995 143.14V144.76V148H57.4415V142.888L53.1575 135.436H56.9015L59.0615 139.198L61.2395 135.436H64.9835L60.6995 142.888V143.14ZM59.2775 142.51L62.6435 136.642H62.1755L59.2775 141.7L59.0615 142.042L55.9655 136.642H55.4975L58.8635 142.51V146.596H59.2775V146.182V142.51ZM76.5235 143.086C76.5715 143.326 76.5955 143.602 76.5955 143.914C76.5955 144.478 76.4875 145.006 76.2715 145.498C76.0555 145.978 75.7615 146.404 75.3895 146.776C75.0295 147.148 74.5975 147.442 74.0935 147.658C73.6015 147.862 73.0795 147.964 72.5275 147.964H66.5695L66.5515 144.724H72.5455C72.7735 144.724 72.9655 144.646 73.1215 144.49C73.2775 144.334 73.3555 144.142 73.3555 143.914C73.3555 143.686 73.2775 143.494 73.1215 143.338C72.9655 143.182 72.7735 143.104 72.5455 143.104H70.2235C69.6955 143.104 69.1975 143.002 68.7295 142.798C68.2615 142.594 67.8535 142.318 67.5055 141.97C67.1575 141.622 66.8815 141.214 66.6775 140.746C66.4735 140.278 66.3715 139.78 66.3715 139.252C66.3715 138.712 66.4735 138.208 66.6775 137.74C66.8815 137.272 67.1575 136.864 67.5055 136.516C67.8535 136.168 68.2615 135.898 68.7295 135.706C69.1975 135.502 69.6955 135.4 70.2235 135.4H76.2355L76.2715 138.64H75.2275H74.7775H70.2235C70.0555 138.64 69.9115 138.7 69.7915 138.82C69.6715 138.94 69.6115 139.084 69.6115 139.252C69.6115 139.42 69.6715 139.564 69.7915 139.684C69.9115 139.804 70.0555 139.864 70.2235 139.864H72.5455C73.1935 139.864 73.7935 140.002 74.3455 140.278C74.8975 140.554 75.3595 140.932 75.7315 141.412C75.9235 141.64 76.0795 141.886 76.1995 142.15C76.2235 142.174 76.2355 142.204 76.2355 142.24C76.2475 142.276 76.2655 142.306 76.2895 142.33C76.2895 142.342 76.2895 142.354 76.2895 142.366C76.3015 142.378 76.3075 142.39 76.3075 142.402L76.4155 142.672C76.4395 142.744 76.4515 142.798 76.4515 142.834C76.4635 142.858 76.4695 142.882 76.4695 142.906C76.4815 142.918 76.4875 142.936 76.4875 142.96C76.4995 142.984 76.5055 143.008 76.5055 143.032C76.5055 143.044 76.5115 143.062 76.5235 143.086ZM75.1735 144.04C75.1855 143.992 75.1915 143.92 75.1915 143.824C75.1915 143.764 75.1855 143.722 75.1735 143.698C75.1735 143.638 75.1675 143.59 75.1555 143.554V143.536C75.1555 143.488 75.1495 143.458 75.1375 143.446C75.1375 143.422 75.1315 143.404 75.1195 143.392C75.1195 143.368 75.1195 143.344 75.1195 143.32C75.1195 143.308 75.1135 143.296 75.1015 143.284C75.1015 143.272 75.1015 143.26 75.1015 143.248C75.1015 143.248 75.0955 143.236 75.0835 143.212C75.0835 143.176 75.0775 143.146 75.0655 143.122C75.0535 143.098 75.0415 143.08 75.0295 143.068C75.0295 143.044 75.0235 143.02 75.0115 142.996C75.0115 142.972 75.0055 142.96 74.9935 142.96C74.9935 142.948 74.9935 142.936 74.9935 142.924C74.9935 142.924 74.9875 142.918 74.9755 142.906C74.9755 142.882 74.9695 142.87 74.9575 142.87C74.9575 142.858 74.9575 142.846 74.9575 142.834C74.9455 142.822 74.9395 142.81 74.9395 142.798C74.9395 142.786 74.9335 142.774 74.9215 142.762C74.8735 142.666 74.8315 142.594 74.7955 142.546L74.7415 142.438C74.7175 142.414 74.6995 142.396 74.6875 142.384C74.6755 142.36 74.6635 142.336 74.6515 142.312C74.6275 142.3 74.6095 142.288 74.5975 142.276C74.5975 142.264 74.5915 142.252 74.5795 142.24C74.5075 142.144 74.4535 142.078 74.4175 142.042C74.1655 141.79 73.8955 141.604 73.6075 141.484C73.5715 141.484 73.5475 141.478 73.5355 141.466C73.2115 141.334 72.8815 141.268 72.5455 141.268H70.2235C69.8755 141.268 69.5515 141.19 69.2515 141.034C68.9635 140.878 68.7235 140.662 68.5315 140.386V140.368C68.4715 140.272 68.4115 140.158 68.3515 140.026C68.3035 139.942 68.2735 139.864 68.2615 139.792C68.2615 139.768 68.2555 139.756 68.2435 139.756C68.2435 139.744 68.2435 139.732 68.2435 139.72V139.702C68.2075 139.558 68.1895 139.408 68.1895 139.252C68.1895 138.964 68.2435 138.7 68.3515 138.46C68.4595 138.208 68.6035 137.992 68.7835 137.812C68.9635 137.632 69.1735 137.488 69.4135 137.38C69.6655 137.272 69.9355 137.218 70.2235 137.218H75.2995V136.822H70.2235C69.8875 136.822 69.5695 136.888 69.2695 137.02C68.9695 137.14 68.7055 137.314 68.4775 137.542C68.2615 137.758 68.0875 138.016 67.9555 138.316C67.8355 138.604 67.7755 138.916 67.7755 139.252C67.7755 139.348 67.7815 139.42 67.7935 139.468C67.8055 139.576 67.8175 139.684 67.8295 139.792C67.8535 139.888 67.8895 139.984 67.9375 140.08C67.9375 140.116 67.9495 140.146 67.9735 140.17C67.9735 140.194 67.9795 140.218 67.9915 140.242C68.0035 140.266 68.0155 140.29 68.0275 140.314C68.0755 140.422 68.1295 140.512 68.1895 140.584V140.602H68.2075L68.2615 140.71C68.2855 140.722 68.3095 140.752 68.3335 140.8L68.4955 140.962C68.6995 141.166 68.9155 141.322 69.1435 141.43C69.1675 141.442 69.1795 141.448 69.1795 141.448C69.1915 141.448 69.2095 141.454 69.2335 141.466C69.5215 141.61 69.8515 141.682 70.2235 141.682H72.5455C72.5815 141.682 72.6295 141.682 72.6895 141.682C72.7495 141.682 72.7975 141.688 72.8335 141.7C73.2175 141.76 73.5595 141.898 73.8595 142.114C74.1595 142.33 74.3935 142.606 74.5615 142.942C74.7055 143.23 74.7775 143.554 74.7775 143.914V144.058C74.7775 144.082 74.7715 144.106 74.7595 144.13C74.7595 144.142 74.7595 144.16 74.7595 144.184V144.202C74.7235 144.478 74.6395 144.736 74.5075 144.976C74.3875 145.204 74.2255 145.408 74.0215 145.588C73.8295 145.756 73.6075 145.894 73.3555 146.002C73.1035 146.098 72.8335 146.146 72.5455 146.146H67.4875V146.542H72.5455C72.8815 146.542 73.1995 146.488 73.4995 146.38C73.7995 146.26 74.0635 146.098 74.2915 145.894C74.5315 145.678 74.7235 145.432 74.8675 145.156C75.0235 144.88 75.1195 144.58 75.1555 144.256V144.238C75.1675 144.214 75.1735 144.178 75.1735 144.13V144.04ZM88.0477 146.758H88.4617V146.362H88.0477V146.758ZM89.8477 145.138V147.982H86.5897V145.138H89.8477ZM88.0297 137.002H88.4437V136.606H88.0297V137.002ZM89.8297 135.382V138.226H86.5717V135.382H89.8297ZM109.718 139.45V143.914C109.718 144.478 109.61 145.006 109.394 145.498C109.19 145.978 108.902 146.404 108.53 146.776C108.158 147.148 107.726 147.442 107.234 147.658C106.742 147.862 106.22 147.964 105.668 147.964H104.678H103.976C103.412 147.964 102.884 147.862 102.392 147.658C101.912 147.442 101.486 147.148 101.114 146.776C100.742 146.404 100.448 145.978 100.232 145.498C100.028 145.006 99.9265 144.478 99.9265 143.914V139.45C99.9265 138.898 100.028 138.376 100.232 137.884C100.448 137.392 100.742 136.96 101.114 136.588C101.486 136.216 101.912 135.928 102.392 135.724C102.884 135.508 103.412 135.4 103.976 135.4H104.678H105.668C106.22 135.4 106.742 135.508 107.234 135.724C107.726 135.928 108.158 136.216 108.53 136.588C108.902 136.96 109.19 137.392 109.394 137.884C109.61 138.376 109.718 138.898 109.718 139.45ZM108.296 143.914V139.45C108.296 137.686 107.42 136.804 105.668 136.804H104.678H103.976C102.224 136.804 101.348 137.686 101.348 139.45V143.914C101.348 145.666 102.224 146.542 103.976 146.542H104.678H105.668C107.42 146.542 108.296 145.666 108.296 143.914ZM107.882 139.45V143.914C107.882 145.402 107.144 146.146 105.668 146.146H104.678H103.976C102.488 146.146 101.744 145.402 101.744 143.914V139.45C101.744 137.962 102.488 137.218 103.976 137.218H104.678H105.668C107.144 137.218 107.882 137.962 107.882 139.45ZM106.478 143.914V139.45C106.478 139.222 106.4 139.03 106.244 138.874C106.088 138.718 105.896 138.64 105.668 138.64H104.678H103.976C103.748 138.64 103.556 138.718 103.4 138.874C103.244 139.03 103.166 139.222 103.166 139.45V143.914C103.166 144.142 103.244 144.334 103.4 144.49C103.556 144.646 103.748 144.724 103.976 144.724H104.678H105.668C105.896 144.724 106.088 144.646 106.244 144.49C106.4 144.334 106.478 144.142 106.478 143.914ZM121.363 139.45V143.914C121.363 144.478 121.255 145.006 121.039 145.498C120.835 145.978 120.547 146.404 120.175 146.776C119.803 147.148 119.371 147.442 118.879 147.658C118.387 147.862 117.865 147.964 117.313 147.964H116.323H115.621C115.057 147.964 114.529 147.862 114.037 147.658C113.557 147.442 113.131 147.148 112.759 146.776C112.387 146.404 112.093 145.978 111.877 145.498C111.673 145.006 111.571 144.478 111.571 143.914V139.45C111.571 138.898 111.673 138.376 111.877 137.884C112.093 137.392 112.387 136.96 112.759 136.588C113.131 136.216 113.557 135.928 114.037 135.724C114.529 135.508 115.057 135.4 115.621 135.4H116.323H117.313C117.865 135.4 118.387 135.508 118.879 135.724C119.371 135.928 119.803 136.216 120.175 136.588C120.547 136.96 120.835 137.392 121.039 137.884C121.255 138.376 121.363 138.898 121.363 139.45ZM119.941 143.914V139.45C119.941 137.686 119.065 136.804 117.313 136.804H116.323H115.621C113.869 136.804 112.993 137.686 112.993 139.45V143.914C112.993 145.666 113.869 146.542 115.621 146.542H116.323H117.313C119.065 146.542 119.941 145.666 119.941 143.914ZM119.527 139.45V143.914C119.527 145.402 118.789 146.146 117.313 146.146H116.323H115.621C114.133 146.146 113.389 145.402 113.389 143.914V139.45C113.389 137.962 114.133 137.218 115.621 137.218H116.323H117.313C118.789 137.218 119.527 137.962 119.527 139.45ZM118.123 143.914V139.45C118.123 139.222 118.045 139.03 117.889 138.874C117.733 138.718 117.541 138.64 117.313 138.64H116.323H115.621C115.393 138.64 115.201 138.718 115.045 138.874C114.889 139.03 114.811 139.222 114.811 139.45V143.914C114.811 144.142 114.889 144.334 115.045 144.49C115.201 144.646 115.393 144.724 115.621 144.724H116.323H117.313C117.541 144.724 117.733 144.646 117.889 144.49C118.045 144.334 118.123 144.142 118.123 143.914ZM141.57 144.724V147.964H138.312V143.104H134.676V144.724V147.964H131.418V135.4H134.676V138.64V139.864H138.312V135.4H141.57V138.64V139.864V143.104V144.724ZM140.148 146.56V146.146V141.682V141.286V137.218V136.822H139.734V141.286H133.254V137.218V136.822H132.84V146.56H133.254V146.146V141.682H139.734V146.56H140.148ZM152.063 139.18C152.075 139.216 152.081 139.264 152.081 139.324C152.081 139.384 152.081 139.432 152.081 139.468V139.648C152.081 139.672 152.075 139.702 152.063 139.738C152.063 139.762 152.063 139.786 152.063 139.81C152.051 139.834 152.045 139.846 152.045 139.846C152.045 139.87 152.039 139.894 152.027 139.918C152.027 139.942 152.027 139.966 152.027 139.99C152.003 140.086 151.979 140.158 151.955 140.206C151.931 140.278 151.913 140.326 151.901 140.35C151.889 140.398 151.859 140.458 151.811 140.53C151.763 140.638 151.697 140.74 151.613 140.836C151.409 141.1 151.151 141.31 150.839 141.466C150.539 141.622 150.209 141.7 149.849 141.7H147.149H145.727V137.236H149.849C150.065 137.224 150.305 137.266 150.569 137.362C150.845 137.458 151.067 137.572 151.235 137.704C151.475 137.896 151.661 138.124 151.793 138.388C151.937 138.64 152.027 138.904 152.063 139.18ZM150.659 139.468C150.659 139.24 150.581 139.048 150.425 138.892C150.269 138.736 150.077 138.658 149.849 138.658H147.149V140.278H149.849C150.077 140.278 150.269 140.2 150.425 140.044C150.581 139.888 150.659 139.696 150.659 139.468ZM152.477 139.18C152.465 139.12 152.453 139.066 152.441 139.018C152.441 138.97 152.435 138.922 152.423 138.874C152.387 138.718 152.345 138.58 152.297 138.46L152.243 138.352C152.219 138.304 152.195 138.262 152.171 138.226C152.147 138.19 152.123 138.148 152.099 138.1L152.045 137.992C152.009 137.932 151.967 137.884 151.919 137.848C151.883 137.8 151.847 137.746 151.811 137.686C151.787 137.686 151.775 137.674 151.775 137.65L151.721 137.596H151.703C151.631 137.524 151.571 137.47 151.523 137.434C151.499 137.41 151.487 137.398 151.487 137.398C151.367 137.302 151.205 137.2 151.001 137.092C150.953 137.068 150.911 137.05 150.875 137.038L150.767 136.984C150.719 136.972 150.671 136.96 150.623 136.948C150.587 136.936 150.545 136.924 150.497 136.912C150.257 136.852 150.047 136.822 149.867 136.822H149.849H145.727H145.331V146.56H145.727V146.164V145.516V142.096H147.149H148.517L150.731 146.56H151.181L148.967 142.096H149.849C150.221 142.096 150.551 142.036 150.839 141.916C150.887 141.892 150.911 141.88 150.911 141.88C151.295 141.724 151.619 141.478 151.883 141.142C151.919 141.106 151.943 141.076 151.955 141.052C151.967 141.04 151.973 141.034 151.973 141.034C151.997 141.01 152.021 140.974 152.045 140.926C152.057 140.902 152.063 140.89 152.063 140.89C152.075 140.878 152.087 140.86 152.099 140.836C152.135 140.8 152.159 140.77 152.171 140.746V140.71C152.183 140.71 152.189 140.704 152.189 140.692C152.201 140.668 152.213 140.644 152.225 140.62C152.237 140.584 152.249 140.554 152.261 140.53C152.273 140.518 152.279 140.512 152.279 140.512C152.279 140.5 152.285 140.488 152.297 140.476C152.297 140.44 152.309 140.41 152.333 140.386V140.35C152.345 140.326 152.351 140.314 152.351 140.314C152.351 140.302 152.351 140.296 152.351 140.296C152.363 140.284 152.369 140.272 152.369 140.26C152.429 140.092 152.465 139.918 152.477 139.738C152.501 139.558 152.501 139.378 152.477 139.198V139.18ZM149.849 135.418C149.921 135.394 149.987 135.394 150.047 135.418C150.299 135.418 150.563 135.454 150.839 135.526C151.127 135.598 151.397 135.7 151.649 135.832C151.913 135.964 152.147 136.114 152.351 136.282C152.375 136.294 152.387 136.3 152.387 136.3C152.423 136.336 152.477 136.378 152.549 136.426C153.125 136.954 153.527 137.59 153.755 138.334V138.352L153.809 138.568V138.586C153.869 138.826 153.899 139.048 153.899 139.252C153.911 139.432 153.911 139.612 153.899 139.792C153.887 139.876 153.875 139.954 153.863 140.026C153.863 140.098 153.851 140.176 153.827 140.26V140.296C153.815 140.32 153.809 140.35 153.809 140.386C153.809 140.41 153.803 140.434 153.791 140.458C153.779 140.482 153.773 140.506 153.773 140.53C153.773 140.554 153.767 140.578 153.755 140.602L153.701 140.764C153.677 140.836 153.653 140.89 153.629 140.926C153.629 140.95 153.623 140.974 153.611 140.998C153.599 141.022 153.587 141.046 153.575 141.07C153.455 141.394 153.281 141.694 153.053 141.97C152.549 142.606 151.913 143.05 151.145 143.302L153.467 147.982H149.849L147.635 143.518H147.149V144.742V147.982H143.909V135.418H149.849ZM165.785 143.086C165.833 143.326 165.857 143.602 165.857 143.914C165.857 144.478 165.749 145.006 165.533 145.498C165.317 145.978 165.023 146.404 164.651 146.776C164.291 147.148 163.859 147.442 163.355 147.658C162.863 147.862 162.341 147.964 161.789 147.964H155.831L155.813 144.724H161.807C162.035 144.724 162.227 144.646 162.383 144.49C162.539 144.334 162.617 144.142 162.617 143.914C162.617 143.686 162.539 143.494 162.383 143.338C162.227 143.182 162.035 143.104 161.807 143.104H159.485C158.957 143.104 158.459 143.002 157.991 142.798C157.523 142.594 157.115 142.318 156.767 141.97C156.419 141.622 156.143 141.214 155.939 140.746C155.735 140.278 155.633 139.78 155.633 139.252C155.633 138.712 155.735 138.208 155.939 137.74C156.143 137.272 156.419 136.864 156.767 136.516C157.115 136.168 157.523 135.898 157.991 135.706C158.459 135.502 158.957 135.4 159.485 135.4H165.497L165.533 138.64H164.489H164.039H159.485C159.317 138.64 159.173 138.7 159.053 138.82C158.933 138.94 158.873 139.084 158.873 139.252C158.873 139.42 158.933 139.564 159.053 139.684C159.173 139.804 159.317 139.864 159.485 139.864H161.807C162.455 139.864 163.055 140.002 163.607 140.278C164.159 140.554 164.621 140.932 164.993 141.412C165.185 141.64 165.341 141.886 165.461 142.15C165.485 142.174 165.497 142.204 165.497 142.24C165.509 142.276 165.527 142.306 165.551 142.33C165.551 142.342 165.551 142.354 165.551 142.366C165.563 142.378 165.569 142.39 165.569 142.402L165.677 142.672C165.701 142.744 165.713 142.798 165.713 142.834C165.725 142.858 165.731 142.882 165.731 142.906C165.743 142.918 165.749 142.936 165.749 142.96C165.761 142.984 165.767 143.008 165.767 143.032C165.767 143.044 165.773 143.062 165.785 143.086ZM164.435 144.04C164.447 143.992 164.453 143.92 164.453 143.824C164.453 143.764 164.447 143.722 164.435 143.698C164.435 143.638 164.429 143.59 164.417 143.554V143.536C164.417 143.488 164.411 143.458 164.399 143.446C164.399 143.422 164.393 143.404 164.381 143.392C164.381 143.368 164.381 143.344 164.381 143.32C164.381 143.308 164.375 143.296 164.363 143.284C164.363 143.272 164.363 143.26 164.363 143.248C164.363 143.248 164.357 143.236 164.345 143.212C164.345 143.176 164.339 143.146 164.327 143.122C164.315 143.098 164.303 143.08 164.291 143.068C164.291 143.044 164.285 143.02 164.273 142.996C164.273 142.972 164.267 142.96 164.255 142.96C164.255 142.948 164.255 142.936 164.255 142.924C164.255 142.924 164.249 142.918 164.237 142.906C164.237 142.882 164.231 142.87 164.219 142.87C164.219 142.858 164.219 142.846 164.219 142.834C164.207 142.822 164.201 142.81 164.201 142.798C164.201 142.786 164.195 142.774 164.183 142.762C164.135 142.666 164.093 142.594 164.057 142.546L164.003 142.438C163.979 142.414 163.961 142.396 163.949 142.384C163.937 142.36 163.925 142.336 163.913 142.312C163.889 142.3 163.871 142.288 163.859 142.276C163.859 142.264 163.853 142.252 163.841 142.24C163.769 142.144 163.715 142.078 163.679 142.042C163.427 141.79 163.157 141.604 162.869 141.484C162.833 141.484 162.809 141.478 162.797 141.466C162.473 141.334 162.143 141.268 161.807 141.268H159.485C159.137 141.268 158.813 141.19 158.513 141.034C158.225 140.878 157.985 140.662 157.793 140.386V140.368C157.733 140.272 157.673 140.158 157.613 140.026C157.565 139.942 157.535 139.864 157.523 139.792C157.523 139.768 157.517 139.756 157.505 139.756C157.505 139.744 157.505 139.732 157.505 139.72V139.702C157.469 139.558 157.451 139.408 157.451 139.252C157.451 138.964 157.505 138.7 157.613 138.46C157.721 138.208 157.865 137.992 158.045 137.812C158.225 137.632 158.435 137.488 158.675 137.38C158.927 137.272 159.197 137.218 159.485 137.218H164.561V136.822H159.485C159.149 136.822 158.831 136.888 158.531 137.02C158.231 137.14 157.967 137.314 157.739 137.542C157.523 137.758 157.349 138.016 157.217 138.316C157.097 138.604 157.037 138.916 157.037 139.252C157.037 139.348 157.043 139.42 157.055 139.468C157.067 139.576 157.079 139.684 157.091 139.792C157.115 139.888 157.151 139.984 157.199 140.08C157.199 140.116 157.211 140.146 157.235 140.17C157.235 140.194 157.241 140.218 157.253 140.242C157.265 140.266 157.277 140.29 157.289 140.314C157.337 140.422 157.391 140.512 157.451 140.584V140.602H157.469L157.523 140.71C157.547 140.722 157.571 140.752 157.595 140.8L157.757 140.962C157.961 141.166 158.177 141.322 158.405 141.43C158.429 141.442 158.441 141.448 158.441 141.448C158.453 141.448 158.471 141.454 158.495 141.466C158.783 141.61 159.113 141.682 159.485 141.682H161.807C161.843 141.682 161.891 141.682 161.951 141.682C162.011 141.682 162.059 141.688 162.095 141.7C162.479 141.76 162.821 141.898 163.121 142.114C163.421 142.33 163.655 142.606 163.823 142.942C163.967 143.23 164.039 143.554 164.039 143.914V144.058C164.039 144.082 164.033 144.106 164.021 144.13C164.021 144.142 164.021 144.16 164.021 144.184V144.202C163.985 144.478 163.901 144.736 163.769 144.976C163.649 145.204 163.487 145.408 163.283 145.588C163.091 145.756 162.869 145.894 162.617 146.002C162.365 146.098 162.095 146.146 161.807 146.146H156.749V146.542H161.807C162.143 146.542 162.461 146.488 162.761 146.38C163.061 146.26 163.325 146.098 163.553 145.894C163.793 145.678 163.985 145.432 164.129 145.156C164.285 144.88 164.381 144.58 164.417 144.256V144.238C164.429 144.214 164.435 144.178 164.435 144.13V144.04ZM177.309 146.758H177.723V146.362H177.309V146.758ZM179.109 145.138V147.982H175.851V145.138H179.109ZM177.291 137.002H177.705V136.606H177.291V137.002ZM179.091 135.382V138.226H175.833V135.382H179.091ZM198.979 139.45V143.914C198.979 144.478 198.871 145.006 198.655 145.498C198.451 145.978 198.163 146.404 197.791 146.776C197.419 147.148 196.987 147.442 196.495 147.658C196.003 147.862 195.481 147.964 194.929 147.964H193.939H193.237C192.673 147.964 192.145 147.862 191.653 147.658C191.173 147.442 190.747 147.148 190.375 146.776C190.003 146.404 189.709 145.978 189.493 145.498C189.289 145.006 189.187 144.478 189.187 143.914V139.45C189.187 138.898 189.289 138.376 189.493 137.884C189.709 137.392 190.003 136.96 190.375 136.588C190.747 136.216 191.173 135.928 191.653 135.724C192.145 135.508 192.673 135.4 193.237 135.4H193.939H194.929C195.481 135.4 196.003 135.508 196.495 135.724C196.987 135.928 197.419 136.216 197.791 136.588C198.163 136.96 198.451 137.392 198.655 137.884C198.871 138.376 198.979 138.898 198.979 139.45ZM197.557 143.914V139.45C197.557 137.686 196.681 136.804 194.929 136.804H193.939H193.237C191.485 136.804 190.609 137.686 190.609 139.45V143.914C190.609 145.666 191.485 146.542 193.237 146.542H193.939H194.929C196.681 146.542 197.557 145.666 197.557 143.914ZM197.143 139.45V143.914C197.143 145.402 196.405 146.146 194.929 146.146H193.939H193.237C191.749 146.146 191.005 145.402 191.005 143.914V139.45C191.005 137.962 191.749 137.218 193.237 137.218H193.939H194.929C196.405 137.218 197.143 137.962 197.143 139.45ZM195.739 143.914V139.45C195.739 139.222 195.661 139.03 195.505 138.874C195.349 138.718 195.157 138.64 194.929 138.64H193.939H193.237C193.009 138.64 192.817 138.718 192.661 138.874C192.505 139.03 192.427 139.222 192.427 139.45V143.914C192.427 144.142 192.505 144.334 192.661 144.49C192.817 144.646 193.009 144.724 193.237 144.724H193.939H194.929C195.157 144.724 195.349 144.646 195.505 144.49C195.661 144.334 195.739 144.142 195.739 143.914ZM210.624 139.45V143.914C210.624 144.478 210.516 145.006 210.3 145.498C210.096 145.978 209.808 146.404 209.436 146.776C209.064 147.148 208.632 147.442 208.14 147.658C207.648 147.862 207.126 147.964 206.574 147.964H205.584H204.882C204.318 147.964 203.79 147.862 203.298 147.658C202.818 147.442 202.392 147.148 202.02 146.776C201.648 146.404 201.354 145.978 201.138 145.498C200.934 145.006 200.832 144.478 200.832 143.914V139.45C200.832 138.898 200.934 138.376 201.138 137.884C201.354 137.392 201.648 136.96 202.02 136.588C202.392 136.216 202.818 135.928 203.298 135.724C203.79 135.508 204.318 135.4 204.882 135.4H205.584H206.574C207.126 135.4 207.648 135.508 208.14 135.724C208.632 135.928 209.064 136.216 209.436 136.588C209.808 136.96 210.096 137.392 210.3 137.884C210.516 138.376 210.624 138.898 210.624 139.45ZM209.202 143.914V139.45C209.202 137.686 208.326 136.804 206.574 136.804H205.584H204.882C203.13 136.804 202.254 137.686 202.254 139.45V143.914C202.254 145.666 203.13 146.542 204.882 146.542H205.584H206.574C208.326 146.542 209.202 145.666 209.202 143.914ZM208.788 139.45V143.914C208.788 145.402 208.05 146.146 206.574 146.146H205.584H204.882C203.394 146.146 202.65 145.402 202.65 143.914V139.45C202.65 137.962 203.394 137.218 204.882 137.218H205.584H206.574C208.05 137.218 208.788 137.962 208.788 139.45ZM207.384 143.914V139.45C207.384 139.222 207.306 139.03 207.15 138.874C206.994 138.718 206.802 138.64 206.574 138.64H205.584H204.882C204.654 138.64 204.462 138.718 204.306 138.874C204.15 139.03 204.072 139.222 204.072 139.45V143.914C204.072 144.142 204.15 144.334 204.306 144.49C204.462 144.646 204.654 144.724 204.882 144.724H205.584H206.574C206.802 144.724 206.994 144.646 207.15 144.49C207.306 144.334 207.384 144.142 207.384 143.914ZM231.083 135.418H234.323V147.982H233.675H231.083V144.742V143.122V143.032L228.743 147.982H226.421L224.081 143.032V143.122V144.742V147.982H220.841V135.418H224.081L227.591 142.834L231.083 135.418ZM232.901 146.578V136.84H232.505H231.983L227.591 146.182L223.181 136.84H222.659H222.263V146.578H222.659V146.164V141.7V141.304V137.236H222.929L227.591 147.118L232.235 137.236H232.505V141.304V141.7V146.164V146.578H232.901ZM240.016 144.742V147.982H236.758V135.418H240.016V138.658V139.864V143.122V144.742ZM238.594 146.56V146.164V141.7V141.286V137.236V136.822H238.18V146.56H238.594ZM250.523 141.682V146.146H250.163L244.655 136.822H244.043H243.845H243.629V146.56H244.043V146.146V141.682V141.286V137.218H244.421L249.929 146.56H250.523H250.937V146.146V141.682V141.286V137.218V136.822H250.523V141.286V141.682ZM252.359 144.724V147.982H249.119L245.465 141.79V143.104V144.724V145.948V147.982H242.225V135.4H245.465L249.119 141.574V139.864V135.4H252.359V138.64V139.864V143.104V144.724ZM264.317 143.086C264.365 143.326 264.389 143.602 264.389 143.914C264.389 144.478 264.281 145.006 264.065 145.498C263.849 145.978 263.555 146.404 263.183 146.776C262.823 147.148 262.391 147.442 261.887 147.658C261.395 147.862 260.873 147.964 260.321 147.964H254.363L254.345 144.724H260.339C260.567 144.724 260.759 144.646 260.915 144.49C261.071 144.334 261.149 144.142 261.149 143.914C261.149 143.686 261.071 143.494 260.915 143.338C260.759 143.182 260.567 143.104 260.339 143.104H258.017C257.489 143.104 256.991 143.002 256.523 142.798C256.055 142.594 255.647 142.318 255.299 141.97C254.951 141.622 254.675 141.214 254.471 140.746C254.267 140.278 254.165 139.78 254.165 139.252C254.165 138.712 254.267 138.208 254.471 137.74C254.675 137.272 254.951 136.864 255.299 136.516C255.647 136.168 256.055 135.898 256.523 135.706C256.991 135.502 257.489 135.4 258.017 135.4H264.029L264.065 138.64H263.021H262.571H258.017C257.849 138.64 257.705 138.7 257.585 138.82C257.465 138.94 257.405 139.084 257.405 139.252C257.405 139.42 257.465 139.564 257.585 139.684C257.705 139.804 257.849 139.864 258.017 139.864H260.339C260.987 139.864 261.587 140.002 262.139 140.278C262.691 140.554 263.153 140.932 263.525 141.412C263.717 141.64 263.873 141.886 263.993 142.15C264.017 142.174 264.029 142.204 264.029 142.24C264.041 142.276 264.059 142.306 264.083 142.33C264.083 142.342 264.083 142.354 264.083 142.366C264.095 142.378 264.101 142.39 264.101 142.402L264.209 142.672C264.233 142.744 264.245 142.798 264.245 142.834C264.257 142.858 264.263 142.882 264.263 142.906C264.275 142.918 264.281 142.936 264.281 142.96C264.293 142.984 264.299 143.008 264.299 143.032C264.299 143.044 264.305 143.062 264.317 143.086ZM262.967 144.04C262.979 143.992 262.985 143.92 262.985 143.824C262.985 143.764 262.979 143.722 262.967 143.698C262.967 143.638 262.961 143.59 262.949 143.554V143.536C262.949 143.488 262.943 143.458 262.931 143.446C262.931 143.422 262.925 143.404 262.913 143.392C262.913 143.368 262.913 143.344 262.913 143.32C262.913 143.308 262.907 143.296 262.895 143.284C262.895 143.272 262.895 143.26 262.895 143.248C262.895 143.248 262.889 143.236 262.877 143.212C262.877 143.176 262.871 143.146 262.859 143.122C262.847 143.098 262.835 143.08 262.823 143.068C262.823 143.044 262.817 143.02 262.805 142.996C262.805 142.972 262.799 142.96 262.787 142.96C262.787 142.948 262.787 142.936 262.787 142.924C262.787 142.924 262.781 142.918 262.769 142.906C262.769 142.882 262.763 142.87 262.751 142.87C262.751 142.858 262.751 142.846 262.751 142.834C262.739 142.822 262.733 142.81 262.733 142.798C262.733 142.786 262.727 142.774 262.715 142.762C262.667 142.666 262.625 142.594 262.589 142.546L262.535 142.438C262.511 142.414 262.493 142.396 262.481 142.384C262.469 142.36 262.457 142.336 262.445 142.312C262.421 142.3 262.403 142.288 262.391 142.276C262.391 142.264 262.385 142.252 262.373 142.24C262.301 142.144 262.247 142.078 262.211 142.042C261.959 141.79 261.689 141.604 261.401 141.484C261.365 141.484 261.341 141.478 261.329 141.466C261.005 141.334 260.675 141.268 260.339 141.268H258.017C257.669 141.268 257.345 141.19 257.045 141.034C256.757 140.878 256.517 140.662 256.325 140.386V140.368C256.265 140.272 256.205 140.158 256.145 140.026C256.097 139.942 256.067 139.864 256.055 139.792C256.055 139.768 256.049 139.756 256.037 139.756C256.037 139.744 256.037 139.732 256.037 139.72V139.702C256.001 139.558 255.983 139.408 255.983 139.252C255.983 138.964 256.037 138.7 256.145 138.46C256.253 138.208 256.397 137.992 256.577 137.812C256.757 137.632 256.967 137.488 257.207 137.38C257.459 137.272 257.729 137.218 258.017 137.218H263.093V136.822H258.017C257.681 136.822 257.363 136.888 257.063 137.02C256.763 137.14 256.499 137.314 256.271 137.542C256.055 137.758 255.881 138.016 255.749 138.316C255.629 138.604 255.569 138.916 255.569 139.252C255.569 139.348 255.575 139.42 255.587 139.468C255.599 139.576 255.611 139.684 255.623 139.792C255.647 139.888 255.683 139.984 255.731 140.08C255.731 140.116 255.743 140.146 255.767 140.17C255.767 140.194 255.773 140.218 255.785 140.242C255.797 140.266 255.809 140.29 255.821 140.314C255.869 140.422 255.923 140.512 255.983 140.584V140.602H256.001L256.055 140.71C256.079 140.722 256.103 140.752 256.127 140.8L256.289 140.962C256.493 141.166 256.709 141.322 256.937 141.43C256.961 141.442 256.973 141.448 256.973 141.448C256.985 141.448 257.003 141.454 257.027 141.466C257.315 141.61 257.645 141.682 258.017 141.682H260.339C260.375 141.682 260.423 141.682 260.483 141.682C260.543 141.682 260.591 141.688 260.627 141.7C261.011 141.76 261.353 141.898 261.653 142.114C261.953 142.33 262.187 142.606 262.355 142.942C262.499 143.23 262.571 143.554 262.571 143.914V144.058C262.571 144.082 262.565 144.106 262.553 144.13C262.553 144.142 262.553 144.16 262.553 144.184V144.202C262.517 144.478 262.433 144.736 262.301 144.976C262.181 145.204 262.019 145.408 261.815 145.588C261.623 145.756 261.401 145.894 261.149 146.002C260.897 146.098 260.627 146.146 260.339 146.146H255.281V146.542H260.339C260.675 146.542 260.993 146.488 261.293 146.38C261.593 146.26 261.857 146.098 262.085 145.894C262.325 145.678 262.517 145.432 262.661 145.156C262.817 144.88 262.913 144.58 262.949 144.256V144.238C262.961 144.214 262.967 144.178 262.967 144.13V144.04Z" fill="white"/>
</svg>
