<svg width="13" height="14" viewBox="0 0 13 14" fill="none" xmlns="http://www.w3.org/2000/svg">
<path d="M5.85 5.10139H7.15V3.80139H5.85V5.10139ZM6.5 12.2514C3.6335 12.2514 1.3 9.91789 1.3 7.05139C1.3 4.18489 3.6335 1.85139 6.5 1.85139C9.3665 1.85139 11.7 4.18489 11.7 7.05139C11.7 9.91789 9.3665 12.2514 6.5 12.2514ZM6.5 0.551392C5.64641 0.551392 4.80117 0.719519 4.01256 1.04617C3.22394 1.37283 2.50739 1.85162 1.90381 2.4552C0.684819 3.67418 0 5.32748 0 7.05139C0 8.7753 0.684819 10.4286 1.90381 11.6476C2.50739 12.2512 3.22394 12.73 4.01256 13.0566C4.80117 13.3833 5.64641 13.5514 6.5 13.5514C8.22391 13.5514 9.87721 12.8666 11.0962 11.6476C12.3152 10.4286 13 8.7753 13 7.05139C13 6.1978 12.8319 5.35257 12.5052 4.56395C12.1786 3.77533 11.6998 3.05878 11.0962 2.4552C10.4926 1.85162 9.77606 1.37283 8.98744 1.04617C8.19883 0.719519 7.35359 0.551392 6.5 0.551392ZM5.85 10.3014H7.15V6.40139H5.85V10.3014Z" fill="white"/>
</svg>
