<svg width="14" height="14" viewBox="0 0 14 14" fill="none" xmlns="http://www.w3.org/2000/svg">
<path d="M0 7C0 8.28644 1.10847 9.33333 2.47059 9.33333C3.12447 9.33333 3.71576 9.08833 4.158 8.69556L9.09176 11.3587C9.07694 11.4598 9.05882 11.5609 9.05882 11.6667C9.05882 12.9531 10.1673 14 11.5294 14C12.8915 14 14 12.9531 14 11.6667C14 10.3802 12.8915 9.33333 11.5294 9.33333C10.8755 9.33333 10.2842 9.57833 9.842 9.97111L4.90824 7.30878C4.92306 7.20689 4.94118 7.10578 4.94118 7C4.94118 6.89422 4.92306 6.79311 4.90824 6.69122L9.842 4.02889C10.2842 4.42167 10.8755 4.66667 11.5294 4.66667C12.8915 4.66667 14 3.61978 14 2.33333C14 1.04689 12.8915 0 11.5294 0C10.1673 0 9.05882 1.04689 9.05882 2.33333C9.05882 2.43911 9.07694 2.54022 9.09176 2.64211L4.158 5.30444C3.70259 4.89586 3.09872 4.66762 2.47059 4.66667C1.10847 4.66667 0 5.71356 0 7Z" fill="white"/>
</svg>
