<svg width="308" height="64" viewBox="0 0 308 64" fill="none" xmlns="http://www.w3.org/2000/svg">
<g filter="url(#filter0_d)">
<path d="M8.3965 26.168C7.1645 26.168 6.0605 25.968 5.0845 25.568C4.1085 25.168 3.3245 24.576 2.7325 23.792C2.1565 23.008 1.8525 22.064 1.8205 20.96H6.1885C6.2525 21.584 6.4685 22.064 6.8365 22.4C7.2045 22.72 7.6845 22.88 8.2765 22.88C8.8845 22.88 9.3645 22.744 9.7165 22.472C10.0685 22.184 10.2445 21.792 10.2445 21.296C10.2445 20.88 10.1005 20.536 9.8125 20.264C9.5405 19.992 9.1965 19.768 8.7805 19.592C8.3805 19.416 7.8045 19.216 7.0525 18.992C5.9645 18.656 5.0765 18.32 4.3885 17.984C3.7005 17.648 3.1085 17.152 2.6125 16.496C2.1165 15.84 1.8685 14.984 1.8685 13.928C1.8685 12.36 2.4365 11.136 3.5725 10.256C4.7085 9.36 6.1885 8.912 8.0125 8.912C9.8685 8.912 11.3645 9.36 12.5005 10.256C13.6365 11.136 14.2445 12.368 14.3245 13.952H9.8845C9.8525 13.408 9.6525 12.984 9.2845 12.68C8.9165 12.36 8.4445 12.2 7.8685 12.2C7.3725 12.2 6.9725 12.336 6.6685 12.608C6.3645 12.864 6.2125 13.24 6.2125 13.736C6.2125 14.28 6.4685 14.704 6.9805 15.008C7.4925 15.312 8.2925 15.64 9.3805 15.992C10.4685 16.36 11.3485 16.712 12.0205 17.048C12.7085 17.384 13.3005 17.872 13.7965 18.512C14.2925 19.152 14.5405 19.976 14.5405 20.984C14.5405 21.944 14.2925 22.816 13.7965 23.6C13.3165 24.384 12.6125 25.008 11.6845 25.472C10.7565 25.936 9.6605 26.168 8.3965 26.168ZM36.1461 9.152V26H32.0421V15.896L28.2741 26H24.9621L21.1701 15.872V26H17.0661V9.152H21.9141L26.6421 20.816L31.3221 9.152H36.1461ZM49.5854 23.024H43.2974L42.2894 26H37.9934L44.0894 9.152H48.8414L54.9374 26H50.5934L49.5854 23.024ZM48.5294 19.856L46.4414 13.688L44.3774 19.856H48.5294ZM65.3847 26L61.8807 19.64H60.8967V26H56.7927V9.152H63.6807C65.0087 9.152 66.1367 9.384 67.0647 9.848C68.0087 10.312 68.7127 10.952 69.1767 11.768C69.6407 12.568 69.8727 13.464 69.8727 14.456C69.8727 15.576 69.5527 16.576 68.9127 17.456C68.2887 18.336 67.3607 18.96 66.1287 19.328L70.0167 26H65.3847ZM60.8967 16.736H63.4407C64.1927 16.736 64.7527 16.552 65.1207 16.184C65.5047 15.816 65.6967 15.296 65.6967 14.624C65.6967 13.984 65.5047 13.48 65.1207 13.112C64.7527 12.744 64.1927 12.56 63.4407 12.56H60.8967V16.736ZM84.5689 9.152V12.44H80.1049V26H76.0009V12.44H71.5369V9.152H84.5689ZM98.0266 9.152C99.8026 9.152 101.355 9.504 102.683 10.208C104.011 10.912 105.035 11.904 105.755 13.184C106.491 14.448 106.859 15.912 106.859 17.576C106.859 19.224 106.491 20.688 105.755 21.968C105.035 23.248 104.003 24.24 102.659 24.944C101.331 25.648 99.7866 26 98.0266 26H91.7146V9.152H98.0266ZM97.7626 22.448C99.3146 22.448 100.523 22.024 101.387 21.176C102.251 20.328 102.683 19.128 102.683 17.576C102.683 16.024 102.251 14.816 101.387 13.952C100.523 13.088 99.3146 12.656 97.7626 12.656H95.8186V22.448H97.7626ZM113.256 9.152V26H109.152V9.152H113.256ZM127.414 14.48C127.11 13.92 126.67 13.496 126.094 13.208C125.534 12.904 124.87 12.752 124.102 12.752C122.774 12.752 121.71 13.192 120.91 14.072C120.11 14.936 119.71 16.096 119.71 17.552C119.71 19.104 120.126 20.32 120.958 21.2C121.806 22.064 122.966 22.496 124.438 22.496C125.446 22.496 126.294 22.24 126.982 21.728C127.686 21.216 128.198 20.48 128.518 19.52H123.31V16.496H132.238V20.312C131.934 21.336 131.414 22.288 130.678 23.168C129.958 24.048 129.038 24.76 127.918 25.304C126.798 25.848 125.534 26.12 124.126 26.12C122.462 26.12 120.974 25.76 119.662 25.04C118.366 24.304 117.35 23.288 116.614 21.992C115.894 20.696 115.534 19.216 115.534 17.552C115.534 15.888 115.894 14.408 116.614 13.112C117.35 11.8 118.366 10.784 119.662 10.064C120.958 9.328 122.438 8.96 124.102 8.96C126.118 8.96 127.814 9.448 129.19 10.424C130.582 11.4 131.502 12.752 131.95 14.48H127.414ZM138.615 9.152V26H134.511V9.152H138.615ZM153.71 9.152V12.44H149.246V26H145.142V12.44H140.678V9.152H153.71ZM166.257 23.024H159.969L158.961 26H154.665L160.761 9.152H165.513L171.609 26H167.265L166.257 23.024ZM165.201 19.856L163.113 13.688L161.049 19.856H165.201ZM177.569 22.832H182.945V26H173.465V9.152H177.569V22.832ZM189.292 17.552C189.292 15.888 189.652 14.408 190.372 13.112C191.092 11.8 192.092 10.784 193.372 10.064C194.668 9.328 196.132 8.96 197.764 8.96C199.764 8.96 201.476 9.488 202.9 10.544C204.324 11.6 205.276 13.04 205.756 14.864H201.244C200.908 14.16 200.428 13.624 199.804 13.256C199.196 12.888 198.5 12.704 197.716 12.704C196.452 12.704 195.428 13.144 194.644 14.024C193.86 14.904 193.468 16.08 193.468 17.552C193.468 19.024 193.86 20.2 194.644 21.08C195.428 21.96 196.452 22.4 197.716 22.4C198.5 22.4 199.196 22.216 199.804 21.848C200.428 21.48 200.908 20.944 201.244 20.24H205.756C205.276 22.064 204.324 23.504 202.9 24.56C201.476 25.6 199.764 26.12 197.764 26.12C196.132 26.12 194.668 25.76 193.372 25.04C192.092 24.304 191.092 23.288 190.372 21.992C189.652 20.696 189.292 19.216 189.292 17.552ZM216.237 26.168C214.653 26.168 213.197 25.8 211.869 25.064C210.557 24.328 209.509 23.304 208.725 21.992C207.957 20.664 207.573 19.176 207.573 17.528C207.573 15.88 207.957 14.4 208.725 13.088C209.509 11.776 210.557 10.752 211.869 10.016C213.197 9.28 214.653 8.912 216.237 8.912C217.821 8.912 219.269 9.28 220.581 10.016C221.909 10.752 222.949 11.776 223.701 13.088C224.469 14.4 224.853 15.88 224.853 17.528C224.853 19.176 224.469 20.664 223.701 21.992C222.933 23.304 221.893 24.328 220.581 25.064C219.269 25.8 217.821 26.168 216.237 26.168ZM216.237 22.424C217.581 22.424 218.653 21.976 219.453 21.08C220.269 20.184 220.677 19 220.677 17.528C220.677 16.04 220.269 14.856 219.453 13.976C218.653 13.08 217.581 12.632 216.237 12.632C214.877 12.632 213.789 13.072 212.973 13.952C212.173 14.832 211.773 16.024 211.773 17.528C211.773 19.016 212.173 20.208 212.973 21.104C213.789 21.984 214.877 22.424 216.237 22.424ZM242.208 26H238.104L231.24 15.608V26H227.136V9.152H231.24L238.104 19.592V9.152H242.208V26ZM260.255 26H256.151L249.287 15.608V26H245.183V9.152H249.287L256.151 19.592V9.152H260.255V26ZM267.334 12.44V15.848H272.83V19.016H267.334V22.712H273.55V26H263.23V9.152H273.55V12.44H267.334ZM275.519 17.552C275.519 15.888 275.879 14.408 276.599 13.112C277.319 11.8 278.319 10.784 279.599 10.064C280.895 9.328 282.359 8.96 283.991 8.96C285.991 8.96 287.703 9.488 289.127 10.544C290.551 11.6 291.503 13.04 291.983 14.864H287.471C287.135 14.16 286.655 13.624 286.031 13.256C285.423 12.888 284.727 12.704 283.943 12.704C282.679 12.704 281.655 13.144 280.871 14.024C280.087 14.904 279.695 16.08 279.695 17.552C279.695 19.024 280.087 20.2 280.871 21.08C281.655 21.96 282.679 22.4 283.943 22.4C284.727 22.4 285.423 22.216 286.031 21.848C286.655 21.48 287.135 20.944 287.471 20.24H291.983C291.503 22.064 290.551 23.504 289.127 24.56C287.703 25.6 285.991 26.12 283.991 26.12C282.359 26.12 280.895 25.76 279.599 25.04C278.319 24.304 277.319 23.288 276.599 21.992C275.879 20.696 275.519 19.216 275.519 17.552ZM306.616 9.152V12.44H302.152V26H298.048V12.44H293.584V9.152H306.616Z" fill="#71F1C3"/>
</g>
<path d="M120.861 48.432C120.861 49.164 120.693 49.836 120.357 50.448C120.021 51.048 119.505 51.534 118.809 51.906C118.113 52.278 117.249 52.464 116.217 52.464H114.309V57H111.231V44.364H116.217C117.225 44.364 118.077 44.538 118.773 44.886C119.469 45.234 119.991 45.714 120.339 46.326C120.687 46.938 120.861 47.64 120.861 48.432ZM115.983 50.016C116.571 50.016 117.009 49.878 117.297 49.602C117.585 49.326 117.729 48.936 117.729 48.432C117.729 47.928 117.585 47.538 117.297 47.262C117.009 46.986 116.571 46.848 115.983 46.848H114.309V50.016H115.983ZM128.908 57L126.28 52.23H125.542V57H122.464V44.364H127.63C128.626 44.364 129.472 44.538 130.168 44.886C130.876 45.234 131.404 45.714 131.752 46.326C132.1 46.926 132.274 47.598 132.274 48.342C132.274 49.182 132.034 49.932 131.554 50.592C131.086 51.252 130.39 51.72 129.466 51.996L132.382 57H128.908ZM125.542 50.052H127.45C128.014 50.052 128.434 49.914 128.71 49.638C128.998 49.362 129.142 48.972 129.142 48.468C129.142 47.988 128.998 47.61 128.71 47.334C128.434 47.058 128.014 46.92 127.45 46.92H125.542V50.052ZM137.284 46.83V49.386H141.406V51.762H137.284V54.534H141.946V57H134.206V44.364H141.946V46.83H137.284ZM148.516 57.126C147.592 57.126 146.764 56.976 146.032 56.676C145.3 56.376 144.712 55.932 144.268 55.344C143.836 54.756 143.608 54.048 143.584 53.22H146.86C146.908 53.688 147.07 54.048 147.346 54.3C147.622 54.54 147.982 54.66 148.426 54.66C148.882 54.66 149.242 54.558 149.506 54.354C149.77 54.138 149.902 53.844 149.902 53.472C149.902 53.16 149.794 52.902 149.578 52.698C149.374 52.494 149.116 52.326 148.804 52.194C148.504 52.062 148.072 51.912 147.508 51.744C146.692 51.492 146.026 51.24 145.51 50.988C144.994 50.736 144.55 50.364 144.178 49.872C143.806 49.38 143.62 48.738 143.62 47.946C143.62 46.77 144.046 45.852 144.898 45.192C145.75 44.52 146.86 44.184 148.228 44.184C149.62 44.184 150.742 44.52 151.594 45.192C152.446 45.852 152.902 46.776 152.962 47.964H149.632C149.608 47.556 149.458 47.238 149.182 47.01C148.906 46.77 148.552 46.65 148.12 46.65C147.748 46.65 147.448 46.752 147.22 46.956C146.992 47.148 146.878 47.43 146.878 47.802C146.878 48.21 147.07 48.528 147.454 48.756C147.838 48.984 148.438 49.23 149.254 49.494C150.07 49.77 150.73 50.034 151.234 50.286C151.75 50.538 152.194 50.904 152.566 51.384C152.938 51.864 153.124 52.482 153.124 53.238C153.124 53.958 152.938 54.612 152.566 55.2C152.206 55.788 151.678 56.256 150.982 56.604C150.286 56.952 149.464 57.126 148.516 57.126ZM158.096 46.83V49.386H162.218V51.762H158.096V54.534H162.758V57H155.018V44.364H162.758V46.83H158.096ZM176.061 57H172.983L167.835 49.206V57H164.757V44.364H167.835L172.983 52.194V44.364H176.061V57ZM187.382 44.364V46.83H184.034V57H180.956V46.83H177.608V44.364H187.382ZM193.499 57.126C192.575 57.126 191.747 56.976 191.015 56.676C190.283 56.376 189.695 55.932 189.251 55.344C188.819 54.756 188.591 54.048 188.567 53.22H191.843C191.891 53.688 192.053 54.048 192.329 54.3C192.605 54.54 192.965 54.66 193.409 54.66C193.865 54.66 194.225 54.558 194.489 54.354C194.753 54.138 194.885 53.844 194.885 53.472C194.885 53.16 194.777 52.902 194.561 52.698C194.357 52.494 194.099 52.326 193.787 52.194C193.487 52.062 193.055 51.912 192.491 51.744C191.675 51.492 191.009 51.24 190.493 50.988C189.977 50.736 189.533 50.364 189.161 49.872C188.789 49.38 188.603 48.738 188.603 47.946C188.603 46.77 189.029 45.852 189.881 45.192C190.733 44.52 191.843 44.184 193.211 44.184C194.603 44.184 195.725 44.52 196.577 45.192C197.429 45.852 197.885 46.776 197.945 47.964H194.615C194.591 47.556 194.441 47.238 194.165 47.01C193.889 46.77 193.535 46.65 193.103 46.65C192.731 46.65 192.431 46.752 192.203 46.956C191.975 47.148 191.861 47.43 191.861 47.802C191.861 48.21 192.053 48.528 192.437 48.756C192.821 48.984 193.421 49.23 194.237 49.494C195.053 49.77 195.713 50.034 196.217 50.286C196.733 50.538 197.177 50.904 197.549 51.384C197.921 51.864 198.107 52.482 198.107 53.238C198.107 53.958 197.921 54.612 197.549 55.2C197.189 55.788 196.661 56.256 195.965 56.604C195.269 56.952 194.447 57.126 193.499 57.126Z" fill="white"/>
<defs>
<filter id="filter0_d" x="0.820496" y="8.91211" width="306.795" height="19.256" filterUnits="userSpaceOnUse" color-interpolation-filters="sRGB">
<feFlood flood-opacity="0" result="BackgroundImageFix"/>
<feColorMatrix in="SourceAlpha" type="matrix" values="0 0 0 0 0 0 0 0 0 0 0 0 0 0 0 0 0 0 127 0"/>
<feOffset dy="1"/>
<feGaussianBlur stdDeviation="0.5"/>
<feColorMatrix type="matrix" values="0 0 0 0 0.552941 0 0 0 0 0.454902 0 0 0 0 0.780392 0 0 0 1 0"/>
<feBlend mode="normal" in2="BackgroundImageFix" result="effect1_dropShadow"/>
<feBlend mode="normal" in="SourceGraphic" in2="effect1_dropShadow" result="shape"/>
</filter>
</defs>
</svg>
