<svg width="31" height="31" viewBox="0 0 31 31" fill="none" xmlns="http://www.w3.org/2000/svg">
<path d="M25.3593 10.3294C25.3761 10.5555 25.3761 10.7802 25.3761 11.005C25.3761 17.8831 20.141 25.8087 10.5736 25.8087C7.626 25.8087 4.88767 24.955 2.58333 23.4721C3.00183 23.5199 3.40483 23.5367 3.84012 23.5367C6.18191 23.5424 8.45737 22.7593 10.2997 21.3137C9.214 21.2941 8.16149 20.9359 7.28918 20.2891C6.41687 19.6423 5.7683 18.7393 5.43404 17.7061C5.75567 17.7539 6.07858 17.7862 6.417 17.7862C6.88329 17.7862 7.35216 17.7216 7.78746 17.6092C6.60915 17.3713 5.54961 16.7327 4.78901 15.8018C4.0284 14.8709 3.61369 13.7054 3.61537 12.5033V12.4387C4.309 12.8249 5.11371 13.0665 5.96621 13.0987C5.25203 12.6242 4.66643 11.9802 4.26165 11.2243C3.85686 10.4683 3.64549 9.62398 3.64637 8.7665C3.64637 7.80033 3.90342 6.91425 4.35421 6.14183C5.66155 7.74998 7.29211 9.0656 9.14027 10.0035C10.9884 10.9413 13.013 11.4806 15.0828 11.5862C15.0027 11.1987 14.9536 10.797 14.9536 10.394C14.9533 9.71065 15.0876 9.03395 15.349 8.40256C15.6103 7.77117 15.9935 7.19748 16.4767 6.71428C16.9599 6.23108 17.5336 5.84786 18.165 5.58651C18.7964 5.32517 19.4731 5.19082 20.1565 5.19116C21.6548 5.19116 23.0072 5.81891 23.9578 6.83416C25.1226 6.60892 26.2396 6.18371 27.2593 5.57737C26.8711 6.77967 26.0578 7.79917 24.9718 8.44487C26.0048 8.32704 27.0145 8.05537 27.9672 7.63887C27.2556 8.67621 26.3739 9.58586 25.3593 10.3294Z" fill="white"/>
</svg>
